<?xml version="1.0" standalone="no"?>
<!DOCTYPE svg PUBLIC "-//W3C//DTD SVG 20010904//EN"
 "http://www.w3.org/TR/2001/REC-SVG-20010904/DTD/svg10.dtd">
<svg version="1.0" xmlns="http://www.w3.org/2000/svg"
 width="512.000000pt" height="512.000000pt" viewBox="0 0 512.000000 512.000000"
 preserveAspectRatio="xMidYMid meet">
<metadata>
Created by potrace 1.14, written by Peter Selinger 2001-2017
</metadata>
<g transform="translate(0.000000,512.000000) scale(0.100000,-0.100000)"
fill="#000000" stroke="none">
<path d="M0 2560 l0 -2561 450 1 c441 1 450 2 440 21 -6 10 -8 19 -4 19 3 0 0
8 -7 18 -13 15 -12 16 4 3 10 -8 17 -9 17 -3 0 6 -4 13 -10 17 -5 3 -6 13 -3
22 4 11 3 14 -5 9 -18 -11 -14 0 5 15 10 8 14 9 10 2 -4 -6 -3 -15 3 -18 6 -4
10 -3 9 2 -4 21 2 34 13 27 7 -4 8 -3 4 5 -4 6 -12 9 -17 6 -15 -10 -10 22 6
38 11 12 12 17 2 20 -7 3 -5 6 6 6 9 1 17 6 17 12 0 5 -5 7 -12 3 -8 -5 -9 -2
-5 10 4 10 7 20 7 22 0 2 5 4 11 4 5 0 7 -5 3 -12 -5 -7 -3 -8 6 -3 11 7 10
10 -1 19 -8 6 -15 17 -17 25 -3 12 -1 12 14 0 10 -8 15 -9 11 -2 -4 6 -1 14 5
16 10 4 10 6 1 6 -7 1 -13 6 -13 12 0 5 6 7 13 3 7 -5 6 0 -3 11 -12 15 -12
17 -1 10 11 -6 13 -3 9 13 -4 14 -2 20 5 15 6 -4 8 0 5 9 -4 8 -2 21 2 29 5 8
4 19 -2 27 -9 10 -8 12 3 10 8 -2 13 2 12 9 -2 7 3 10 10 7 8 -3 14 2 14 10 0
8 -3 13 -7 11 -10 -6 -5 33 5 42 4 5 5 2 1 -5 -4 -6 -3 -12 2 -12 5 0 12 9 15
20 3 11 2 18 -3 15 -4 -3 -14 3 -21 12 -12 14 -12 16 1 8 8 -5 23 -10 34 -10
17 -2 17 -1 2 10 -17 13 -23 30 -6 20 6 -4 10 7 10 25 0 22 4 29 13 24 7 -5 6
0 -3 11 -11 14 -12 17 -1 11 9 -6 12 -5 9 5 -3 8 2 20 11 27 9 8 10 10 2 6 -9
-4 -12 -2 -9 7 3 8 12 13 19 12 9 -2 8 1 -3 9 -15 11 -15 13 4 30 12 10 16 18
9 18 -7 0 -9 5 -6 10 4 6 11 7 17 4 6 -4 6 1 -1 14 -9 16 -8 24 5 36 8 9 12
21 8 27 -4 8 -3 9 4 5 7 -4 12 -1 12 8 0 8 -5 16 -12 18 -7 3 -5 7 6 11 11 5
15 3 10 -5 -4 -7 -3 -8 4 -4 9 5 9 13 1 28 -8 15 -8 19 0 14 6 -4 11 -2 11 4
0 6 4 9 8 6 5 -3 8 12 8 34 -1 31 1 36 11 28 10 -8 12 -7 7 6 -3 9 -10 16 -14
16 -4 0 -7 10 -7 23 0 12 -13 40 -27 62 -27 39 -46 62 -32 38 4 -8 2 -11 -6
-8 -17 7 -23 76 -7 85 8 6 8 9 0 14 -6 4 -11 2 -11 -4 0 -6 -5 -8 -11 -5 -6 5
-4 12 8 22 10 8 13 12 6 9 -6 -4 -15 -1 -19 5 -4 7 -3 9 3 6 6 -4 17 1 24 10
12 15 12 16 -3 10 -13 -4 -15 -2 -11 10 5 12 3 14 -7 8 -9 -5 -11 -4 -6 4 6 9
12 9 24 -1 10 -7 14 -8 10 -4 -4 5 -3 15 4 23 8 11 7 12 -5 8 -18 -8 -32 11
-16 21 8 4 9 3 5 -4 -4 -7 -5 -12 -2 -12 3 0 10 9 16 20 9 16 8 19 -7 13 -14
-6 -14 -2 4 23 18 25 19 33 9 52 -7 12 -15 19 -19 16 -4 -4 -7 -2 -7 4 0 7 7
12 15 12 13 0 14 4 4 22 -9 18 -9 20 4 15 16 -6 18 16 2 30 -4 4 -5 2 0 -6 6
-10 4 -12 -4 -7 -9 6 -8 14 4 32 8 13 13 24 9 24 -4 0 -1 7 6 16 11 12 11 15
1 12 -8 -2 -15 5 -16 15 -3 15 -1 16 11 6 12 -10 13 -9 8 4 -3 9 -13 18 -22
20 -15 4 -15 5 1 6 9 0 17 6 17 12 0 5 -4 8 -9 5 -12 -8 -8 25 6 50 10 17 9
25 -1 40 -8 10 -12 25 -9 34 4 12 3 13 -5 1 -6 -8 -8 -20 -5 -27 2 -6 0 -15
-6 -19 -7 -4 -8 0 -4 11 4 11 3 15 -5 10 -6 -3 -14 -2 -17 4 -4 6 -2 9 3 8 6
-2 10 2 10 7 1 6 -6 9 -14 9 -11 -2 -12 1 -3 12 8 10 7 12 -10 9 -11 -2 -24 1
-27 7 -4 6 -3 9 2 6 5 -3 15 1 23 9 12 13 11 14 -7 9 -11 -4 -23 -2 -27 4 -4
6 -3 10 2 9 19 -3 34 2 28 10 -3 5 0 13 6 17 8 5 9 3 4 -6 -6 -9 -2 -10 15 -5
17 5 21 4 16 -6 -4 -8 -1 -6 7 4 10 12 17 14 22 7 11 -18 61 19 63 48 1 14 11
35 22 47 11 12 17 25 13 29 -4 4 0 4 10 0 12 -4 17 -1 17 11 0 10 -5 13 -12 9
-7 -4 -8 -3 -4 5 6 9 11 9 21 1 11 -10 13 -8 10 9 -3 19 5 26 27 22 4 0 4 7 1
16 -5 12 -2 15 10 10 14 -5 15 -2 7 19 -9 23 -8 24 11 13 12 -6 19 -7 16 -1
-4 5 4 19 18 32 13 12 22 30 20 40 -3 13 1 17 11 13 8 -3 15 1 16 8 0 8 2 19
3 24 2 6 3 15 4 20 1 6 5 5 9 -2 5 -8 11 -3 19 13 10 21 10 24 -2 14 -10 -8
-15 -8 -21 2 -4 7 -4 10 1 6 13 -12 37 21 39 52 0 15 4 26 8 24 5 -3 8 2 8 11
0 10 5 13 13 9 8 -5 7 -2 -2 10 -12 14 -12 19 -1 29 10 10 11 9 5 -3 -7 -12
-6 -13 6 -2 16 15 18 44 4 54 -5 4 1 8 15 8 20 0 22 2 10 10 -13 8 -13 11 -1
22 11 11 13 11 6 -1 -6 -10 -4 -12 4 -7 9 6 9 11 0 22 -9 11 -8 15 6 20 13 5
14 9 3 15 -10 7 -10 9 0 9 6 0 12 7 12 15 0 8 5 15 10 15 6 0 10 7 10 16 0 9
5 12 13 8 6 -4 9 -4 5 1 -4 4 -3 17 3 29 10 20 10 20 -5 2 -9 -11 -16 -16 -16
-10 0 5 9 20 20 34 17 21 21 23 30 10 9 -13 10 -13 8 2 -2 9 2 16 7 15 6 -1 9
-6 7 -11 -2 -5 3 -4 11 2 8 7 18 8 22 4 5 -4 5 -1 1 6 -4 7 -12 9 -18 6 -6 -4
-8 -2 -5 3 4 6 18 8 32 5 20 -3 34 4 61 32 19 20 32 41 29 46 -4 6 1 7 11 3
12 -4 15 -3 10 5 -4 7 -2 12 4 12 7 0 10 7 6 18 -5 14 -4 14 9 -2 13 -17 15
-18 15 -3 0 9 6 17 13 17 8 0 7 4 -3 11 -12 9 -11 10 7 6 14 -3 27 2 35 12 12
14 11 15 -4 2 -10 -7 -18 -9 -18 -3 0 12 26 23 35 14 3 -3 19 -7 35 -7 21 -1
26 2 19 11 -7 8 -6 15 2 20 8 4 9 3 5 -4 -4 -7 -1 -12 9 -12 9 0 14 4 11 8 -2
4 5 9 17 9 17 2 18 0 7 -7 -11 -7 -10 -9 7 -7 12 0 19 5 16 10 -3 5 12 7 36 4
22 -2 38 0 35 5 -3 4 -11 5 -17 2 -7 -4 -8 -3 -4 1 11 12 37 15 37 4 0 -5 5
-9 11 -9 6 0 9 7 6 14 -4 10 -1 13 9 9 8 -3 22 1 32 8 16 13 16 13 2 -6 -15
-19 -15 -19 14 -1 26 16 28 17 23 2 -4 -10 -3 -15 3 -11 6 3 10 14 11 23 0 12
3 11 9 -5 5 -13 12 -23 15 -23 4 0 3 5 0 10 -3 6 -1 10 5 10 6 0 8 5 4 12 -5
7 -3 8 7 2 18 -11 60 -13 53 -3 -2 4 -14 6 -26 4 -11 -3 -18 -1 -14 3 12 11
67 9 62 -3 -2 -7 2 -12 9 -12 8 0 11 7 7 16 -4 12 0 11 19 -4 22 -19 23 -19 9
-1 -14 18 -13 19 3 13 9 -3 17 -2 17 4 0 6 7 6 19 -1 13 -7 22 -7 26 0 3 5 1
10 -6 10 -7 0 -9 3 -6 7 4 3 17 -2 29 -13 12 -10 18 -14 14 -7 -4 8 2 15 19
19 13 3 22 10 19 15 -3 5 0 9 5 9 6 0 11 -4 11 -10 0 -5 9 -10 20 -10 11 0 20
-4 20 -9 0 -5 10 -7 23 -4 12 3 18 1 12 -4 -6 -4 -11 -29 -10 -55 0 -45 8 -59
23 -42 4 4 1 4 -5 0 -7 -4 -13 -2 -13 4 0 7 6 10 13 7 6 -2 10 -11 8 -18 -10
-40 -9 -60 4 -55 8 3 17 0 21 -6 4 -7 3 -8 -4 -4 -7 4 -12 2 -12 -4 0 -6 -5
-8 -12 -4 -7 4 -8 3 -4 -5 4 -6 10 -9 14 -7 9 5 26 -15 30 -34 2 -11 -1 -10
-11 3 -8 9 -18 17 -22 17 -4 0 -2 -6 4 -13 6 -8 8 -17 4 -20 -6 -7 12 -11 30
-8 5 1 6 -3 2 -8 -3 -6 -11 -9 -18 -7 -7 1 -9 1 -4 -1 4 -3 5 -9 2 -14 -4 -5
2 -6 12 -2 10 3 15 3 11 -2 -4 -4 -3 -14 3 -21 7 -8 6 -14 -2 -20 -7 -4 -9 -3
-6 3 4 6 0 14 -8 17 -12 4 -13 2 -6 -13 6 -10 7 -22 3 -26 -4 -4 4 -4 18 -1
15 5 20 4 13 -1 -7 -5 -11 -19 -9 -30 3 -15 0 -20 -8 -17 -7 3 -13 -2 -13 -11
0 -8 3 -13 5 -10 10 10 30 -30 21 -41 -5 -7 -12 -21 -14 -32 -3 -15 0 -19 12
-15 13 5 13 3 2 -15 -11 -18 -10 -23 12 -41 14 -13 18 -20 9 -19 -9 2 -14 -3
-12 -14 1 -9 -3 -20 -9 -24 -7 -4 -9 -3 -5 4 3 6 1 14 -5 18 -8 4 -9 3 -5 -4
4 -7 2 -12 -5 -12 -7 0 -9 -3 -6 -7 4 -3 1 -13 -6 -21 -11 -13 -9 -14 13 -2
l25 13 -20 -24 c-11 -13 -24 -28 -30 -32 -5 -5 0 -6 12 -2 17 4 22 2 22 -12 1
-35 4 -52 10 -51 28 3 33 -2 20 -19 -12 -14 -12 -16 0 -8 9 5 12 4 7 -3 -3 -5
0 -13 6 -16 7 -3 3 -3 -9 0 -15 3 -25 -1 -32 -14 -6 -11 -7 -22 -3 -26 3 -4
-2 -4 -11 0 -13 4 -23 0 -33 -15 -9 -12 -20 -18 -26 -15 -7 5 -8 2 -3 -5 5 -9
14 -6 34 11 l26 23 -25 -28 c-14 -16 -30 -25 -38 -22 -13 5 -13 3 -1 -12 12
-14 12 -16 0 -8 -11 6 -13 4 -8 -8 3 -10 2 -17 -2 -17 -5 0 -12 6 -14 13 -4 9
-6 9 -6 -1 -1 -8 -6 -10 -13 -6 -8 5 -7 0 2 -11 12 -15 12 -17 1 -10 -11 6
-13 4 -7 -10 5 -15 4 -16 -8 -6 -12 10 -13 8 -9 -10 5 -18 3 -21 -10 -16 -9 3
-16 3 -16 -1 3 -19 -2 -33 -10 -28 -5 4 -7 -3 -4 -14 3 -12 0 -20 -6 -20 -7 0
-9 -5 -6 -10 4 -6 1 -9 -7 -8 -7 2 -12 -3 -10 -11 2 -8 -3 -11 -12 -8 -9 4
-15 1 -13 -6 1 -7 -4 -11 -11 -9 -8 1 -11 -2 -7 -8 5 -8 12 -7 23 2 15 11 15
11 5 -3 -7 -9 -10 -19 -7 -22 4 -4 -3 -5 -14 -2 -12 2 -25 -1 -28 -7 -4 -7 -2
-8 4 -4 7 4 12 1 12 -9 0 -11 -5 -15 -14 -12 -10 4 -13 1 -10 -7 3 -8 0 -17
-5 -21 -6 -3 -8 -11 -5 -17 4 -7 2 -8 -5 -4 -9 6 -9 11 -1 21 8 10 8 15 -2 21
-7 4 -10 3 -5 -1 4 -5 -1 -17 -10 -28 -10 -11 -12 -17 -6 -13 7 4 13 2 13 -3
0 -6 -4 -12 -10 -12 -5 -1 -14 -2 -19 -3 -5 0 -13 -4 -17 -8 -3 -4 3 -5 16 -3
17 3 19 1 11 -9 -6 -7 -8 -16 -4 -20 4 -4 1 -4 -8 -1 -10 4 -15 -1 -16 -17 -2
-18 0 -19 7 -8 7 11 9 10 7 -8 -1 -12 -6 -21 -12 -18 -7 2 -12 -2 -12 -10 0
-7 5 -10 11 -7 6 3 8 3 4 -2 -4 -4 -2 -15 4 -24 7 -9 8 -13 4 -9 -5 4 -15 -4
-23 -18 -17 -33 -17 -34 5 -35 14 0 14 -2 -3 -9 -17 -6 -20 -16 -18 -49 1 -28
-2 -39 -9 -35 -7 4 -8 2 -4 -5 4 -6 12 -9 17 -6 5 4 9 1 9 -4 0 -6 -6 -11 -14
-11 -8 0 -18 -5 -22 -12 -4 -6 -3 -8 2 -5 6 3 16 2 24 -4 11 -6 12 -9 2 -9 -8
0 -10 -5 -6 -12 5 -9 2 -9 -9 1 -21 17 -22 8 -1 -13 10 -10 11 -16 4 -16 -7 0
-10 -7 -6 -15 3 -10 -1 -15 -12 -15 -13 -1 -11 -4 8 -15 14 -8 19 -14 11 -15
-11 0 -11 -3 0 -17 13 -16 12 -17 -3 -4 -10 7 -15 18 -11 24 3 6 1 7 -5 3 -9
-5 -9 -13 -2 -26 13 -24 13 -43 0 -35 -5 3 -10 2 -10 -3 0 -5 9 -13 19 -18 18
-8 18 -10 3 -24 -14 -13 -15 -12 -9 3 3 9 2 17 -3 17 -13 0 -13 -47 -1 -54 11
-7 9 -32 -4 -43 -4 -4 -5 -2 -1 4 5 9 2 11 -9 6 -12 -4 -13 -8 -5 -13 7 -4 13
-28 14 -53 3 -44 2 -45 -18 -35 l-21 11 20 -23 c11 -13 14 -20 8 -16 -7 4 -13
2 -13 -3 0 -6 5 -11 10 -11 6 0 10 -5 10 -11 0 -6 -7 -9 -14 -6 -10 4 -13 1
-9 -9 3 -7 8 -14 12 -14 4 0 8 -7 8 -15 0 -13 -4 -12 -21 2 -12 10 -15 11 -8
3 16 -18 16 -33 0 -24 -9 5 -9 2 1 -9 7 -9 10 -17 6 -17 -4 0 -1 -8 6 -17 10
-11 10 -14 2 -9 -7 4 -13 3 -13 -3 0 -5 5 -13 10 -16 6 -4 7 -11 4 -17 -4 -6
0 -15 7 -20 10 -7 7 -7 -9 -3 -26 8 -29 -3 -4 -21 16 -13 16 -14 -2 -7 -13 4
-17 3 -12 -5 3 -6 -2 -16 -11 -22 -16 -9 -15 -10 5 -5 23 7 23 6 7 -18 -15
-24 -15 -26 2 -36 11 -6 13 -11 5 -11 -7 0 -10 -5 -6 -12 4 -7 3 -8 -5 -4 -6
4 -9 11 -7 15 3 4 -1 8 -8 8 -8 0 -12 -6 -9 -13 2 -6 -1 -15 -8 -20 -8 -4 -10
-3 -5 4 6 10 -4 16 -25 14 -3 -1 -6 5 -6 13 0 7 5 12 11 11 6 -2 8 -1 3 1 -4
3 -5 9 -2 13 3 5 0 12 -6 16 -7 4 -9 3 -5 -4 4 -6 -1 -10 -13 -9 -16 1 -18 4
-8 16 10 12 9 13 -9 3 -12 -6 -25 -8 -30 -4 -5 4 -2 -1 6 -11 11 -16 11 -18
-1 -15 -8 2 -13 -3 -11 -11 2 -11 0 -12 -10 -4 -10 9 -13 5 -13 -17 -1 -16 3
-26 7 -24 5 3 6 10 3 15 -3 5 1 6 9 3 14 -5 14 -8 1 -21 -9 -8 -13 -18 -10
-23 3 -5 0 -11 -5 -13 -6 -3 -5 -4 2 -3 7 2 12 9 10 15 -1 7 2 10 8 6 7 -4 6
-13 -2 -28 -10 -21 -10 -21 7 -7 17 14 18 14 5 -10 -12 -22 -12 -24 2 -12 13
10 18 10 24 1 4 -8 3 -9 -4 -5 -7 4 -12 2 -12 -3 0 -6 4 -11 9 -11 5 0 8 -8 6
-17 -3 -23 14 -45 28 -36 6 3 7 1 3 -5 -4 -6 -14 -9 -24 -6 -10 4 -13 3 -6 -3
6 -4 15 -19 19 -33 7 -25 7 -25 -10 -5 -9 11 -14 14 -10 8 3 -7 1 -13 -6 -13
-7 0 -4 -7 7 -15 13 -10 14 -14 5 -15 -10 0 -11 -3 -3 -13 8 -9 5 -19 -10 -37
l-20 -25 16 27 c9 16 13 28 8 28 -12 0 -32 -46 -24 -54 8 -9 12 -36 4 -35 -19
3 -32 -2 -32 -12 0 -5 5 -7 12 -3 7 5 8 3 4 -5 -5 -7 -15 -10 -23 -7 -8 3 -12
2 -8 -3 8 -14 -6 -42 -17 -35 -6 4 -5 -4 2 -16 7 -12 8 -20 2 -16 -5 3 -13 -1
-16 -10 -3 -8 -11 -12 -17 -8 -8 4 -9 3 -5 -4 4 -6 14 -9 24 -6 12 4 11 2 -3
-6 -24 -15 -45 -40 -45 -54 0 -6 5 -4 11 4 9 13 10 13 6 0 -2 -8 -10 -15 -18
-14 -10 1 -14 -13 -14 -51 0 -34 4 -52 12 -52 7 0 9 5 6 11 -4 6 1 5 10 -3 9
-7 15 -17 12 -21 -3 -5 -1 -11 5 -15 5 -3 10 1 10 9 0 12 5 14 24 6 21 -8 24
-6 22 14 -2 19 1 22 21 18 17 -3 23 0 21 9 -2 8 3 13 10 12 6 -2 12 2 12 7 0
6 7 10 15 10 8 0 15 5 15 10 0 6 8 10 18 8 10 -2 16 2 14 11 -2 9 3 11 14 7
14 -5 15 -4 5 8 -9 11 -9 16 0 22 8 4 9 3 5 -4 -4 -7 -2 -12 3 -12 6 0 11 7
11 15 0 8 5 15 11 15 5 0 7 6 3 13 -5 7 0 6 11 -3 10 -8 16 -10 12 -3 -4 6 -2
15 4 18 5 4 8 14 4 22 -4 13 -3 14 9 4 12 -10 13 -9 9 9 -4 16 -2 19 12 13 13
-4 16 -3 11 5 -4 7 -2 12 4 12 6 0 8 5 5 10 -3 6 -2 10 4 10 5 0 12 -6 15 -12
3 -7 3 -3 1 9 -3 12 0 25 6 29 8 4 9 3 5 -4 -5 -8 -2 -10 9 -6 13 5 13 9 3 22
-12 14 -10 14 12 2 24 -13 24 -12 10 5 -9 11 -10 16 -2 11 7 -4 12 -2 12 8 0
8 4 18 10 21 6 4 7 -1 4 -12 -5 -16 -4 -16 8 -2 7 9 17 18 23 20 5 2 9 8 7 13
-2 5 4 6 12 3 13 -5 31 18 27 36 -1 4 7 3 18 -2 16 -9 18 -8 14 9 -4 15 -1 18
17 15 17 -3 20 -2 10 10 -8 10 -8 15 1 21 7 4 9 3 6 -3 -4 -6 0 -13 8 -16 10
-4 12 -1 8 10 -5 12 -2 15 10 10 11 -4 14 -2 10 9 -3 8 3 22 13 30 11 9 13 13
7 9 -7 -3 -13 -1 -13 4 0 6 5 11 12 11 6 0 4 6 -7 13 -14 11 -15 16 -5 22 8 5
11 4 7 -2 -3 -5 0 -10 7 -10 11 0 12 4 3 19 -7 10 -13 14 -15 8 -7 -19 -17
-10 -19 17 -1 20 1 23 9 12 8 -12 9 -12 5 1 -2 10 -14 14 -33 13 -22 -2 -25 0
-14 7 13 9 13 11 0 19 -10 7 -17 6 -23 -2 -6 -8 -7 -7 -4 4 3 10 -5 26 -19 40
-13 12 -24 19 -24 15 0 -5 -7 -3 -15 4 -8 6 -19 9 -25 5 -5 -3 -10 -1 -10 4 0
6 8 11 18 11 14 0 15 2 2 9 -8 6 -17 8 -20 6 -3 -2 -6 8 -6 21 -2 20 0 22 10
12 6 -7 10 -11 9 -9 -2 2 2 10 8 17 7 8 6 14 -2 20 -8 5 -9 3 -4 -6 6 -9 4
-11 -5 -5 -10 6 -6 14 16 32 29 24 29 25 4 19 -14 -3 -20 -3 -13 0 7 3 9 13 6
22 -3 10 -1 13 4 7 4 -5 14 -11 22 -13 12 -3 12 -1 0 14 -12 16 -12 17 4 11
10 -4 16 -3 12 2 -3 5 1 12 7 15 7 4 3 4 -10 2 -18 -3 -21 -1 -13 8 6 7 8 16
4 20 -4 4 0 4 10 0 12 -4 17 -1 17 11 0 10 -4 13 -12 9 -9 -6 -9 -3 0 9 8 9
19 15 25 14 6 -1 12 5 13 13 0 8 2 17 3 20 1 3 4 16 7 29 4 21 3 22 -13 10
-16 -13 -17 -12 -4 4 8 10 19 16 25 14 6 -3 11 7 11 24 1 16 -3 25 -10 22 -5
-3 -4 0 3 8 11 12 14 12 22 -1 5 -8 10 -11 10 -6 0 5 -8 18 -17 28 -16 18 -16
18 3 12 17 -7 18 -6 4 11 -14 17 -14 18 6 7 16 -9 21 -8 21 3 0 8 -4 12 -9 9
-13 -8 -1 47 13 60 9 8 9 6 0 -11 -7 -15 -8 -24 -1 -28 6 -4 10 -3 9 2 -4 22
2 34 14 27 13 -8 -10 24 -28 39 -6 5 -3 7 7 4 9 -3 22 1 29 9 10 12 9 13 -7 7
-16 -6 -17 -5 -6 9 10 13 10 17 0 21 -13 5 17 11 37 7 6 -1 0 8 -12 20 -24 21
-31 36 -13 25 6 -3 11 -1 11 4 5 42 4 58 -5 70 -9 12 -7 12 11 3 14 -8 24 -9
28 -2 3 6 -4 14 -17 19 -13 6 -18 10 -11 10 6 1 10 10 8 21 -2 12 0 18 6 15 5
-4 7 -10 4 -15 -3 -5 -1 -11 4 -15 6 -3 8 4 6 16 -3 13 0 28 5 34 7 9 5 16 -5
25 -10 9 -15 9 -15 1 0 -6 5 -11 11 -11 5 0 7 -5 4 -10 -10 -16 -21 -12 -22 9
-1 11 6 26 15 33 13 11 14 11 7 -1 -6 -10 -4 -12 4 -7 7 5 10 14 7 22 -3 8 -1
14 5 14 6 0 7 6 3 13 -4 6 -3 9 1 4 5 -4 18 -1 30 7 18 12 22 12 22 1 0 -8 -5
-11 -10 -8 -6 3 -7 1 -3 -6 10 -16 39 6 29 23 -3 6 -3 8 2 4 4 -4 17 -2 29 4
25 14 65 18 71 8 3 -4 -9 -6 -25 -5 -25 2 -28 0 -19 -11 6 -8 16 -10 23 -6 6
4 22 8 36 8 39 3 40 3 40 19 0 13 4 14 23 4 19 -11 20 -10 10 2 -10 12 -8 17
10 29 19 12 20 11 10 -2 -11 -12 -9 -14 8 -13 11 1 25 8 30 16 5 8 9 9 9 2 0
-17 78 18 84 37 3 11 4 11 5 -2 1 -20 16 -24 26 -8 4 6 12 7 18 3 7 -4 5 2 -3
13 -8 10 -11 16 -6 12 5 -4 18 -2 30 4 17 9 19 8 9 -3 -7 -7 -13 -18 -13 -24
0 -6 3 -7 8 0 4 6 16 17 26 25 18 14 19 13 13 -2 -5 -15 -4 -16 13 -6 10 7 17
16 14 20 -3 4 2 5 10 2 9 -3 16 -10 16 -16 0 -5 5 -6 11 -3 6 4 8 12 6 19 -3
6 4 12 14 12 14 0 15 -3 7 -13 -6 -8 -8 -16 -4 -20 3 -3 6 -1 6 6 0 7 5 9 12
5 6 -4 8 -3 4 4 -3 6 1 18 10 26 17 18 44 21 44 6 0 -5 5 -10 11 -10 5 0 8 4
5 8 -3 5 1 9 9 9 13 0 13 -3 0 -17 -17 -19 -20 -40 -5 -40 6 0 10 -5 10 -11 0
-5 -6 -7 -12 -3 -8 5 -7 0 2 -11 8 -10 10 -16 4 -12 -7 4 -15 0 -18 -9 -3 -8
-2 -12 3 -9 5 3 12 1 15 -4 4 -5 -2 -12 -11 -14 -17 -4 -17 -5 0 -6 9 0 17 -5
17 -10 0 -5 -8 -12 -17 -14 -17 -4 -17 -5 0 -6 9 0 17 -6 17 -12 0 -5 6 -7 13
-4 6 4 1 -3 -12 -14 -13 -12 -17 -21 -10 -21 7 0 9 -3 6 -7 -4 -3 -2 -12 4
-20 14 -17 -2 -17 -21 -1 -7 7 -5 1 6 -13 10 -15 22 -25 25 -23 10 6 30 -22
22 -29 -3 -4 -1 -7 5 -7 7 0 12 -4 12 -8 0 -5 -6 -9 -14 -9 -7 0 -13 7 -12 16
1 9 -3 16 -9 16 -13 0 -15 -46 -2 -70 9 -18 9 -19 -7 -6 -9 8 -19 11 -23 7 -3
-3 -1 -6 6 -6 7 0 11 -7 8 -14 -4 -10 -1 -13 7 -10 7 3 13 -2 13 -10 0 -8 -6
-12 -14 -9 -10 4 -11 0 -4 -18 5 -13 14 -23 20 -22 16 4 14 -2 -6 -18 -11 -9
-14 -10 -9 -2 5 9 2 11 -9 6 -9 -3 -12 -9 -7 -12 5 -3 13 -17 17 -31 7 -23 6
-24 -11 -11 -10 7 -6 2 9 -13 15 -14 23 -26 17 -26 -6 0 -8 -5 -4 -12 4 -7 3
-8 -5 -4 -6 4 -8 12 -5 18 4 7 2 8 -4 4 -13 -8 -5 -36 12 -36 6 0 4 -5 -4 -10
-13 -8 -13 -10 2 -10 9 0 20 -5 24 -12 4 -6 3 -8 -3 -5 -6 4 -16 -6 -22 -23
-6 -18 -6 -30 0 -30 5 0 9 -7 9 -15 0 -8 -5 -15 -11 -15 -6 0 -7 -5 -2 -13 4
-6 9 -21 9 -32 3 -40 4 -44 17 -41 6 1 9 1 4 -1 -4 -3 -4 -10 -1 -15 4 -7 2
-8 -4 -4 -7 4 -12 3 -12 -2 0 -6 8 -13 17 -16 12 -5 14 -9 5 -18 -15 -15 -16
-32 -2 -23 6 3 7 -1 4 -10 -4 -8 0 -23 7 -32 10 -12 10 -15 2 -9 -8 4 -13 1
-13 -9 0 -9 4 -13 10 -10 6 3 7 -1 4 -9 -3 -9 -11 -13 -16 -10 -7 4 -7 0 0
-12 5 -11 8 -36 7 -56 -1 -21 2 -38 7 -38 5 0 6 5 2 12 -4 6 -3 8 3 5 7 -5 8
-20 3 -42 -4 -19 -4 -38 1 -41 5 -3 14 -15 20 -27 l12 -22 -24 20 c-16 14 -20
15 -10 3 7 -9 9 -23 5 -29 -5 -8 -2 -11 7 -7 10 4 14 -2 14 -18 0 -16 -5 -22
-13 -19 -7 3 -10 0 -7 -5 3 -6 13 -10 21 -10 14 0 13 -2 0 -16 -21 -21 -20
-30 1 -13 15 12 16 12 10 -4 -4 -10 -7 -21 -7 -23 0 -3 -6 -2 -12 3 -8 4 -7
-3 3 -17 9 -14 15 -36 14 -48 -1 -13 4 -26 12 -29 7 -3 13 -9 13 -15 0 -5 -5
-6 -12 -2 -6 4 -4 -3 5 -15 15 -23 13 -50 -6 -62 -5 -3 -1 -9 8 -12 10 -5 14
-3 9 5 -4 7 -3 8 5 4 9 -6 9 -11 0 -22 -6 -8 -8 -14 -3 -14 5 0 2 -5 -6 -11
-13 -9 -13 -10 0 -6 8 2 14 10 12 16 -1 7 2 10 8 6 7 -4 7 -12 0 -25 -12 -22
-13 -33 -3 -27 5 3 8 -5 8 -18 0 -13 -4 -21 -10 -18 -5 3 1 -5 15 -16 19 -16
20 -20 6 -14 -20 7 -18 -3 8 -36 13 -17 17 -43 5 -35 -5 3 -7 9 -4 14 3 5 0
12 -7 16 -7 4 -10 4 -6 -1 4 -4 2 -15 -5 -23 -9 -13 -9 -14 1 -8 7 4 12 1 12
-9 0 -9 4 -14 9 -10 6 3 9 -4 8 -15 -1 -11 -4 -20 -7 -20 -18 0 -4 -30 14 -31
21 0 21 -1 1 -9 -16 -7 -12 -9 18 -8 24 2 37 7 37 16 0 7 -5 10 -12 6 -7 -5
-8 -3 -2 7 12 20 14 40 3 33 -5 -3 -6 -11 -2 -17 4 -7 0 -7 -10 1 -13 11 -14
17 -4 33 10 16 9 21 -2 29 -13 7 -13 11 0 26 13 15 12 16 -11 9 -24 -7 -24 -7
-5 9 17 13 17 15 3 16 -17 0 -19 23 -3 37 4 4 5 3 1 -4 -3 -6 -2 -14 3 -17 5
-4 8 2 6 11 -1 10 -7 17 -13 16 -6 -1 -13 4 -16 12 -3 9 0 12 8 9 8 -3 17 0
22 7 4 7 3 10 -4 5 -14 -8 -29 21 -26 51 0 13 -2 23 -6 23 -4 0 -7 7 -7 15 0
9 6 14 13 11 8 -3 11 0 7 9 -3 8 -9 12 -14 9 -5 -3 -9 7 -9 21 0 16 4 24 11
19 7 -4 6 3 -2 17 -13 24 -15 30 -18 50 0 5 -4 8 -8 6 -5 -3 -8 5 -8 18 0 18
3 21 13 13 9 -8 11 -7 6 6 -3 9 -13 16 -21 16 -8 0 -11 5 -8 10 4 6 12 7 18 4
7 -4 0 6 -15 23 -32 33 -34 40 -14 40 7 0 13 -7 12 -15 0 -8 6 -17 14 -20 12
-3 12 -2 3 8 -6 7 -9 19 -6 26 3 8 1 14 -5 14 -13 0 -22 49 -10 56 5 3 1 13
-9 21 -16 13 -16 14 -1 9 12 -3 15 -1 11 10 -3 7 -9 14 -14 14 -5 0 -9 5 -9
11 0 5 5 7 10 4 12 -7 9 17 -3 26 -11 8 -18 51 -7 44 5 -3 11 -1 15 5 3 5 0
10 -8 10 -11 0 -13 9 -7 40 7 38 6 39 -14 28 -18 -10 -19 -9 -8 4 6 8 14 29
16 47 3 28 1 31 -18 26 -11 -2 -15 -2 -8 1 6 3 12 17 12 30 0 18 4 23 13 18 8
-6 8 -3 -1 9 -8 9 -10 22 -6 28 5 8 3 9 -6 4 -10 -6 -12 -4 -7 8 3 10 2 17 -3
17 -5 0 -8 9 -7 19 0 11 5 17 9 15 5 -3 5 -10 2 -16 -4 -7 -2 -8 4 -4 15 9 15
12 -4 30 -12 12 -12 16 -2 16 10 0 9 3 -2 10 -13 9 -13 10 0 10 12 0 12 2 2 9
-7 4 -15 20 -16 34 -2 15 0 25 3 22 4 -2 13 5 19 16 12 18 11 19 -7 9 -17 -9
-20 -8 -15 5 4 8 11 15 18 15 6 0 5 4 -3 9 -8 5 -11 16 -7 26 5 14 4 15 -7 7
-11 -9 -13 -7 -12 8 1 11 5 23 10 27 4 5 5 3 2 -3 -3 -6 0 -11 8 -11 11 0 12
4 4 13 -7 8 -6 14 3 18 7 3 2 3 -12 0 -14 -4 -22 -3 -18 1 4 5 2 15 -5 24 -11
14 -10 14 6 2 15 -12 20 -12 30 -1 7 7 7 10 2 7 -6 -3 -15 6 -22 19 -6 13 -8
22 -3 19 4 -3 10 2 13 9 4 10 0 14 -13 11 -11 -2 -23 1 -26 7 -4 6 -3 8 3 5 6
-4 15 -1 21 6 11 14 12 47 1 47 -4 0 -10 7 -13 16 -3 8 -2 13 3 10 5 -3 12 1
15 10 4 10 2 13 -6 8 -7 -5 -9 -2 -5 8 3 9 0 21 -6 28 -9 9 -9 11 -1 7 15 -9
27 20 12 29 -7 5 -8 2 -3 -7 5 -8 4 -11 0 -6 -5 4 -9 16 -10 27 -1 16 1 18 13
7 13 -10 14 -9 4 10 -7 12 -17 24 -24 26 -7 3 -2 6 11 6 24 1 24 1 5 17 -10 8
-13 13 -6 9 6 -3 12 -1 12 4 0 6 -4 11 -9 11 -5 0 -7 9 -4 20 3 11 9 18 13 15
8 -5 -6 46 -21 76 -6 14 -3 16 14 12 21 -4 21 -4 4 10 -14 12 -15 16 -4 20 8
3 19 1 24 -4 6 -6 9 1 8 20 -2 26 0 29 14 18 10 -8 13 -8 8 0 -4 6 -2 15 4 18
5 4 8 13 5 21 -3 7 0 16 6 20 7 4 8 3 4 -4 -4 -7 -2 -12 4 -12 6 0 8 -5 4 -12
-4 -7 -3 -8 5 -4 6 4 9 12 6 17 -4 5 -1 9 5 9 6 0 8 5 5 10 -4 6 -1 9 7 8 7
-2 12 3 10 10 -1 8 2 11 8 7 5 -3 10 -1 10 4 0 19 -5 26 -14 23 -5 -2 -4 4 3
12 7 9 17 13 22 10 5 -3 9 -1 9 5 0 5 -6 12 -12 14 -10 4 -10 6 -1 6 14 1 38
-38 29 -47 -3 -3 -6 0 -6 7 0 7 -5 9 -11 6 -7 -5 -4 -14 8 -27 9 -11 13 -19 8
-18 -30 6 -38 -1 -19 -15 14 -11 15 -14 2 -9 -13 4 -16 -1 -14 -35 1 -22 -1
-38 -5 -35 -4 2 -10 0 -14 -6 -3 -5 -1 -10 6 -10 8 0 7 -5 -2 -17 -8 -9 -9
-14 -3 -10 8 4 11 -5 10 -30 -2 -26 -8 -39 -22 -44 -14 -5 -15 -8 -4 -9 8 -2
18 -2 23 -1 16 2 6 -10 -16 -19 -15 -6 -17 -9 -6 -9 20 -1 32 -28 17 -37 -6
-4 -8 -3 -4 4 3 6 2 13 -3 16 -5 4 -8 -1 -7 -10 1 -8 9 -20 17 -25 10 -6 8 -9
-11 -9 -15 0 -20 -3 -13 -8 6 -4 11 -14 11 -22 -1 -8 0 -24 1 -35 1 -17 3 -18
11 -5 8 12 10 11 8 -5 0 -11 0 -31 0 -44 2 -20 4 -21 17 -11 13 11 14 10 10
-2 -3 -8 2 -21 12 -29 16 -13 17 -12 4 4 -12 15 -12 17 3 11 9 -3 16 -14 17
-23 0 -11 3 -9 9 7 5 12 15 22 22 21 10 0 10 -2 1 -6 -7 -2 -13 -11 -13 -20 0
-10 6 -12 21 -8 12 4 19 3 16 -2 -7 -12 59 -11 70 1 4 5 3 6 -4 2 -6 -3 -14
-2 -18 3 -3 6 5 8 20 5 15 -3 25 0 25 7 0 7 3 9 7 6 3 -4 -2 -16 -13 -28 l-19
-21 32 18 c17 10 29 22 26 27 -3 5 5 6 18 2 23 -7 23 -7 4 8 l-20 16 20 -2
c12 -1 19 3 17 12 -2 8 3 11 11 8 10 -4 12 3 9 24 -2 16 0 35 6 42 5 6 8 26 5
42 -9 58 -4 81 25 122 14 20 18 34 12 38 -6 4 -8 11 -5 16 3 5 -1 6 -9 3 -16
-6 -21 5 -17 35 2 8 -2 10 -10 5 -9 -5 -10 -2 -5 11 6 16 4 16 -11 4 -11 -9
-14 -10 -9 -1 5 8 1 12 -11 13 -10 0 -13 3 -6 6 8 3 4 13 -12 31 -14 15 -25
31 -25 36 0 4 -7 2 -17 -5 -15 -13 -15 -12 -3 11 12 23 12 24 -4 11 -14 -12
-16 -12 -11 1 3 8 -2 21 -12 29 -16 13 -17 12 -4 -4 12 -15 12 -17 -3 -11 -11
4 -16 14 -13 25 3 11 0 22 -5 26 -7 3 -8 1 -4 -5 4 -7 2 -12 -3 -12 -6 0 -11
7 -11 15 0 14 -12 20 -33 16 -5 -1 -6 3 -2 9 3 6 12 7 18 3 7 -4 5 2 -3 12 -9
11 -10 16 -2 11 6 -4 12 -2 12 3 0 6 -6 11 -12 11 -9 0 -8 4 2 10 8 5 11 10 5
10 -5 0 -4 5 2 11 9 9 8 18 -4 36 -15 22 -14 23 3 16 17 -6 17 -5 5 10 -16 20
-1 23 18 5 11 -11 11 -9 0 9 -7 12 -18 19 -24 15 -5 -3 -4 1 2 10 7 8 9 19 5
23 -4 5 2 5 12 1 17 -6 17 -5 5 11 -12 14 -12 16 0 8 11 -6 13 -3 9 12 -4 16
-1 19 18 17 13 -1 22 2 19 6 -10 16 6 60 19 53 6 -4 5 1 -3 10 -12 15 -10 18
10 26 13 5 19 10 13 10 -6 1 -11 8 -11 16 0 10 6 14 16 10 8 -3 12 -3 8 1 -4
4 -1 14 6 22 8 10 8 13 1 9 -7 -4 -15 0 -18 9 -3 8 -2 12 4 9 6 -3 10 1 10 9
0 9 4 16 10 16 5 0 7 -8 4 -17 -5 -14 -4 -15 4 -4 5 8 9 25 7 38 -1 15 2 22 9
20 7 -3 13 7 14 27 4 47 12 67 25 59 8 -4 7 -1 -1 9 -9 12 -10 18 -2 23 6 4 9
14 5 23 -5 14 -4 14 12 -1 18 -15 19 -15 19 3 0 10 -4 16 -8 14 -19 -12 -6 19
18 41 25 23 25 23 2 19 l-23 -5 22 12 c28 15 37 38 21 57 -10 12 -10 14 0 8 7
-4 12 -2 12 8 0 8 -3 16 -8 19 -4 2 -1 2 6 0 9 -2 11 4 7 20 -5 20 -5 20 7 5
12 -14 14 -10 12 34 -3 55 3 78 19 78 7 0 7 -4 -1 -12 -7 -7 -12 -17 -12 -22
0 -6 7 -2 15 8 11 14 12 23 4 33 -9 10 -8 13 2 13 9 0 10 3 4 8 -13 9 -17 32
-6 32 5 0 12 -6 14 -12 3 -7 3 3 0 22 -3 19 -11 39 -17 43 -6 4 2 6 18 5 21
-2 29 2 31 15 2 9 -1 15 -6 11 -5 -3 -7 -10 -4 -15 4 -5 2 -9 -4 -9 -5 0 -12
4 -15 9 -8 12 29 43 39 34 4 -5 5 -2 1 5 -4 6 -2 12 4 12 8 0 9 -7 5 -18 -11
-27 -13 -62 -4 -62 11 0 8 -42 -5 -59 -8 -11 -8 -13 0 -8 7 4 15 0 18 -9 3 -8
2 -12 -4 -9 -14 9 -12 -1 8 -43 20 -39 19 -77 -1 -65 -7 4 -6 -1 2 -10 16 -20
25 -23 15 -4 -4 7 -3 9 2 4 5 -5 9 -14 9 -20 1 -7 7 -11 14 -9 7 1 10 -2 6 -7
-3 -6 -13 -7 -22 -4 -11 4 -14 3 -9 -5 4 -7 13 -12 20 -12 8 0 20 -8 27 -17
10 -11 10 -14 2 -9 -8 4 -13 1 -13 -8 0 -9 5 -16 10 -16 6 0 10 -7 10 -15 0
-8 -5 -15 -12 -15 -6 0 -8 -3 -5 -6 4 -4 13 -1 21 5 11 10 14 9 12 -1 -1 -7
-6 -19 -10 -27 -6 -10 -5 -12 2 -7 8 5 12 -2 12 -19 0 -18 4 -24 13 -19 7 5 6
0 -3 -11 -13 -17 -13 -18 0 -13 11 4 16 0 16 -12 0 -15 -4 -17 -21 -8 -17 10
-18 9 -8 -4 7 -8 10 -18 6 -21 -3 -4 0 -7 8 -7 8 -1 3 -8 -11 -16 -23 -14 -23
-15 -3 -11 19 4 20 2 10 -13 -6 -10 -15 -16 -19 -14 -4 3 -8 0 -8 -5 0 -6 5
-11 11 -11 8 0 7 -6 -2 -17 -8 -9 -9 -14 -2 -10 6 4 13 4 16 0 2 -5 2 -2 1 5
-2 7 3 15 11 18 8 4 15 10 15 16 0 5 -5 6 -12 2 -6 -4 -3 5 8 19 10 15 23 27
28 27 5 0 3 -6 -3 -13 -6 -8 -7 -18 -3 -22 4 -5 1 -5 -5 -1 -9 5 -11 2 -6 -9
4 -13 8 -14 14 -4 4 7 6 16 3 20 -2 4 0 10 5 14 6 3 7 13 4 21 -3 9 0 20 8 25
12 7 12 9 0 9 -10 0 -11 3 -3 13 12 14 5 60 -8 52 -5 -3 -11 -1 -15 4 -3 6 6
8 22 6 16 -2 22 -2 15 1 -6 3 -9 11 -6 16 4 6 2 8 -4 4 -6 -3 -14 -1 -18 5 -5
8 -3 9 5 5 8 -5 14 -1 18 12 3 12 11 18 18 16 7 -3 16 -1 20 5 4 7 0 8 -11 4
-13 -5 -15 -3 -10 8 4 8 -2 4 -13 -9 -18 -21 -20 -21 -18 -3 0 11 5 17 11 14
5 -4 7 1 3 11 -5 12 -2 16 11 14 11 -2 16 3 14 15 -2 9 2 17 8 17 7 0 4 7 -4
16 -9 8 -14 20 -11 25 8 12 25 11 25 -2 0 -5 -5 -7 -12 -3 -7 4 -8 3 -4 -5 14
-23 22 -1 20 53 -1 32 2 53 7 50 5 -3 6 -11 3 -17 -4 -7 -3 -9 1 -4 5 4 10 15
11 25 1 9 5 27 8 40 3 13 1 20 -5 17 -5 -4 -6 -11 -3 -17 4 -7 2 -8 -4 -4 -8
5 -10 2 -6 -8 3 -9 2 -16 -3 -16 -5 0 -9 11 -9 24 0 14 4 22 10 19 5 -4 7 1 3
10 -4 11 -2 14 9 10 7 -3 14 0 14 6 0 6 -5 11 -12 11 -6 0 -8 3 -5 7 4 3 2 12
-3 19 -8 9 -6 12 7 10 10 0 18 6 18 14 0 8 5 19 10 23 6 5 3 7 -7 3 -20 -6
-25 10 -6 17 9 4 7 6 -3 6 -17 1 -20 36 -5 60 6 10 5 12 -2 7 -19 -11 -14 5 6
21 9 8 12 12 5 9 -15 -8 -43 3 -43 16 0 7 5 6 14 -1 11 -9 15 -8 20 4 3 9 2
13 -4 10 -6 -3 -10 -1 -10 5 0 6 -4 9 -8 6 -4 -2 -8 4 -8 14 0 14 3 16 13 8
22 -18 15 0 -8 21 l-21 20 23 -5 c21 -5 22 -4 7 6 -10 6 -23 21 -28 33 -11 21
-11 21 4 3 9 -11 16 -15 16 -9 0 7 -6 18 -12 25 -7 7 -14 18 -15 23 -1 6 -5
19 -9 30 -7 18 -6 19 12 5 18 -14 18 -14 1 6 -9 11 -14 24 -10 27 3 4 1 7 -7
7 -10 0 -10 4 1 17 12 15 12 16 -3 10 -22 -8 -34 11 -19 26 9 9 10 7 5 -8 -7
-17 -5 -18 8 -8 8 7 18 11 21 8 4 -3 5 -2 2 2 -3 3 0 12 7 20 8 11 7 17 -8 28
-16 13 -17 14 -1 9 9 -3 17 -1 17 5 0 6 -5 11 -12 11 -6 0 -8 3 -5 6 4 4 13 1
22 -6 13 -11 14 -10 9 5 -6 14 -4 16 7 10 20 -13 49 -13 56 -2 3 6 1 7 -5 3
-6 -3 -13 -2 -17 3 -3 6 5 8 20 5 20 -3 23 -1 18 13 -6 17 -6 17 10 1 10 -9
25 -14 38 -11 16 4 17 8 7 14 -9 6 -7 9 8 9 25 0 76 44 66 56 -4 5 2 2 12 -6
17 -13 18 -13 11 -1 -6 11 -4 13 8 8 11 -4 14 -2 11 7 -3 8 4 16 16 19 11 3
20 9 19 14 -3 20 2 44 9 40 4 -2 20 12 37 32 16 20 21 29 10 20 -11 -9 -27
-20 -35 -24 -13 -8 -13 -7 0 11 8 10 22 25 30 32 8 8 10 11 4 8 -6 -3 -10 8
-9 30 1 18 -2 34 -7 34 -5 0 -2 7 7 16 11 11 13 20 5 28 -5 7 -6 16 -2 20 10
11 9 30 -3 39 -6 5 -4 7 5 4 8 -2 14 -10 13 -16 -2 -6 1 -11 7 -11 11 0 9 28
-3 48 -5 7 -4 12 2 12 6 0 11 4 11 10 0 5 -3 9 -7 9 -22 -4 -29 4 -29 29 0 15
4 31 10 35 6 5 0 5 -12 2 -21 -6 -23 -4 -17 14 3 12 2 21 -3 21 -6 0 -13 7
-16 16 -5 14 -4 15 9 4 13 -11 14 -10 9 4 -3 9 -10 16 -15 16 -5 0 -9 5 -9 11
0 5 6 7 13 3 8 -5 8 -2 -2 9 -7 9 -21 17 -30 17 -14 0 -14 2 -1 10 13 9 13 10
0 11 -8 1 -18 1 -22 0 -4 0 -4 7 -1 16 4 11 3 14 -5 9 -7 -4 -12 -1 -12 9 0
10 5 13 12 9 6 -4 8 -3 5 4 -4 5 -17 9 -30 8 -17 -2 -23 3 -25 18 0 11 -6 22
-12 24 -7 3 -7 9 2 20 8 11 4 10 -11 -3 -14 -11 -21 -15 -18 -8 4 6 3 14 -3
18 -6 4 -8 11 -5 16 3 5 -1 6 -9 3 -9 -3 -16 -1 -16 5 0 5 -10 15 -21 22 -17
9 -20 8 -14 -2 6 -8 4 -10 -4 -5 -7 5 -10 15 -6 24 3 9 3 13 -1 9 -4 -4 -13
-2 -21 5 -11 9 -12 7 -8 -8 4 -12 0 -9 -9 6 -8 14 -15 21 -16 16 0 -5 -10 -1
-21 10 -16 14 -23 15 -26 7 -4 -10 -8 -9 -19 2 -11 11 -20 12 -34 5 -15 -8
-21 -6 -29 7 -8 15 -11 15 -12 3 -1 -8 -1 -19 0 -23 1 -5 -3 -6 -8 -2 -6 3 -7
13 -4 22 4 10 2 14 -4 10 -6 -4 -14 -1 -16 5 -4 10 -6 10 -6 0 -1 -7 -6 -10
-13 -6 -7 4 -8 3 -4 -5 4 -6 12 -8 18 -5 7 4 8 2 4 -4 -5 -9 -13 -9 -26 -2
-24 13 -33 13 -24 -1 5 -8 1 -8 -14 0 -16 9 -24 8 -36 -5 -12 -12 -16 -12 -16
-2 0 10 -3 9 -10 -2 -9 -13 -11 -13 -20 0 -9 13 -10 12 -8 -3 2 -12 -10 -29
-31 -45 -19 -15 -32 -21 -27 -14 4 7 1 12 -9 12 -9 0 -13 -4 -10 -10 3 -6 1
-10 -5 -10 -7 0 -9 -7 -6 -16 3 -8 2 -12 -4 -9 -6 3 -10 2 -10 -3 0 -6 6 -12
14 -15 9 -4 12 -14 9 -27 -4 -13 0 -26 8 -32 10 -7 8 -8 -8 -5 -13 3 -23 1
-23 -4 0 -5 5 -9 11 -9 5 0 7 -5 4 -10 -4 -6 -11 -8 -16 -4 -14 9 -39 -15 -32
-32 3 -8 0 -14 -7 -14 -6 0 -8 -4 -5 -10 3 -6 -4 -10 -17 -10 -19 0 -20 -2 -8
-11 12 -9 11 -10 -7 -6 -19 4 -21 2 -13 -13 7 -13 5 -21 -7 -31 -14 -11 -15
-11 -9 -1 7 11 4 11 -12 1 -11 -7 -18 -18 -15 -25 3 -9 -2 -12 -16 -9 -12 2
-19 0 -16 -6 4 -5 1 -9 -5 -9 -6 0 -8 -5 -4 -12 4 -7 3 -8 -5 -4 -6 4 -9 11
-6 16 3 4 -3 14 -13 21 -15 13 -16 12 -3 -3 12 -16 10 -19 -14 -28 -26 -10
-26 -11 -8 -28 10 -9 13 -13 6 -8 -8 5 -13 4 -13 -3 0 -7 -5 -9 -12 -5 -7 4
-8 3 -4 -5 4 -6 12 -9 17 -6 8 6 10 2 13 -25 1 -5 -3 -10 -7 -9 -15 1 -36 -35
-37 -63 0 -21 -4 -26 -17 -22 -17 5 -17 5 -1 -6 21 -13 12 -44 -10 -35 -12 4
-11 0 4 -16 10 -12 13 -19 5 -14 -10 6 -12 2 -6 -15 6 -17 4 -21 -6 -14 -12 6
-12 5 0 -9 15 -18 26 -23 16 -7 -3 6 -1 10 6 10 6 0 9 -8 6 -20 -4 -17 -2 -18
14 -9 11 5 18 6 18 2 -4 -15 22 -68 43 -90 12 -13 16 -23 10 -23 -7 0 -12 -4
-12 -10 0 -5 7 -7 15 -4 8 4 15 1 15 -5 0 -6 -8 -11 -17 -12 -11 0 -13 -3 -5
-6 6 -2 12 -11 12 -19 0 -9 -4 -13 -8 -10 -4 2 -8 -8 -7 -22 0 -16 -5 -26 -12
-25 -7 2 -10 -3 -7 -11 5 -13 -24 -31 -34 -21 -3 3 -1 5 5 5 5 0 10 6 10 14 0
8 -7 11 -18 9 -11 -3 -19 2 -23 15 -7 20 -21 23 -42 10 -6 -4 -11 -1 -11 7 0
8 4 12 9 9 4 -3 8 -1 8 4 0 5 -14 12 -30 16 -17 3 -30 11 -30 17 0 8 6 7 18
-2 15 -13 16 -12 3 3 -7 10 -18 15 -24 11 -6 -4 -8 0 -4 11 4 9 3 15 -2 11 -6
-3 -14 3 -20 12 -6 10 -11 13 -11 7 0 -5 6 -16 13 -23 9 -10 7 -10 -11 0 -12
8 -20 20 -17 27 3 7 0 10 -6 7 -12 -8 -27 11 -64 77 -18 33 -22 49 -14 54 7 4
10 3 6 -2 -3 -5 1 -18 9 -29 8 -10 14 -14 14 -8 0 7 -5 15 -10 18 -6 4 -7 12
-3 18 4 7 9 21 10 32 2 16 1 17 -6 5 -5 -8 -7 -19 -5 -25 3 -5 -1 -2 -10 8
-15 19 -11 51 5 41 5 -3 9 0 9 5 0 6 -4 11 -10 11 -5 0 -10 9 -10 21 0 11 4
18 9 14 5 -3 13 0 17 6 4 7 3 9 -3 6 -6 -4 -19 5 -28 19 -10 15 -12 23 -4 19
9 -6 11 -3 6 9 -5 14 -3 17 8 12 8 -3 15 -1 15 4 0 6 -5 10 -11 10 -5 0 -7 5
-4 10 4 6 11 7 17 4 7 -4 8 -2 4 5 -4 6 -12 9 -17 6 -5 -4 -9 -1 -9 5 0 6 -5
8 -12 4 -8 -5 -7 0 2 11 14 17 13 18 -2 12 -25 -9 -22 0 3 14 15 8 19 8 15 0
-4 -6 -2 -11 4 -11 7 0 9 7 6 16 -3 9 -6 18 -6 20 0 3 -4 2 -10 -1 -6 -3 -10
-1 -10 4 0 11 15 15 35 11 6 -1 5 4 -2 11 -6 6 -9 18 -6 25 3 8 0 14 -7 14 -6
0 -8 5 -5 10 4 6 11 7 17 4 7 -4 8 -2 4 5 -4 6 -12 9 -17 6 -5 -4 -9 -1 -9 4
0 6 6 11 13 11 8 0 8 3 -2 9 -8 5 -16 17 -17 25 -1 9 2 14 7 10 5 -3 7 -10 4
-15 -4 -5 -1 -9 4 -9 17 0 13 15 -10 44 -19 24 -16 32 14 27 12 -2 8 9 -11 30
-19 19 -52 17 -52 -3 0 -7 5 -6 14 1 10 9 15 8 19 -3 4 -9 1 -18 -5 -22 -7 -5
-8 -2 -3 6 5 8 4 11 -3 6 -6 -4 -8 -14 -5 -23 4 -9 2 -14 -3 -10 -6 3 -9 -7
-6 -26 2 -18 4 -42 5 -55 0 -14 6 -21 13 -18 8 3 11 -1 7 -10 -6 -17 -15 -18
-33 -1 -12 10 -12 9 -1 -5 7 -9 9 -23 5 -29 -4 -7 -3 -9 2 -6 6 3 9 -18 9 -54
-2 -45 1 -59 11 -55 8 3 11 0 7 -9 -3 -8 -9 -13 -13 -10 -4 2 -7 -7 -7 -20 0
-14 4 -25 9 -25 5 0 6 -5 3 -10 -4 -6 -11 -7 -17 -4 -6 4 -6 -1 1 -14 14 -26
14 -35 0 -26 -8 5 -8 1 0 -14 6 -11 8 -22 3 -25 -4 -2 -1 -2 7 0 12 3 12 1 0
-14 -8 -9 -9 -14 -3 -10 14 8 25 -15 16 -30 -4 -5 -15 -12 -24 -16 -13 -4 -15
-2 -11 11 6 15 5 16 -12 2 -17 -14 -18 -14 -7 6 11 22 0 44 -23 44 -5 0 -11
12 -12 26 0 15 -6 30 -12 34 -7 3 -9 14 -5 23 4 12 1 17 -12 17 -15 0 -16 2
-5 9 15 10 24 41 12 41 -4 0 -13 -6 -20 -12 -11 -11 -11 -9 0 9 7 12 18 19 24
15 5 -3 3 3 -5 13 -14 17 -13 18 5 12 19 -7 19 -6 3 7 -19 14 -25 32 -8 21 6
-3 10 -2 10 4 0 12 -13 21 -40 26 -23 4 -27 -13 -5 -21 8 -4 12 -11 9 -16 -4
-6 -10 -5 -15 3 -5 8 -9 9 -9 4 0 -6 -10 -11 -22 -12 -13 0 -17 1 -10 4 6 3
10 9 7 14 -4 5 1 6 9 3 30 -12 16 6 -16 21 -26 12 -28 14 -8 10 22 -4 22 -3
-5 10 -26 12 -20 21 10 15 6 -1 -1 10 -14 23 -12 14 -20 30 -17 35 3 6 -1 13
-10 16 -10 4 -13 2 -8 -6 4 -7 3 -8 -5 -4 -6 4 -9 11 -6 16 7 11 -5 41 -14 36
-4 -3 -8 4 -8 15 -1 10 3 19 8 19 6 0 7 -5 3 -12 -4 -7 -3 -8 5 -4 14 9 5 26
-13 26 -8 0 -16 9 -19 20 -3 11 -1 18 3 15 5 -3 12 0 16 6 4 7 3 10 -2 6 -5
-3 -17 1 -27 8 -12 8 -14 15 -8 20 6 3 11 11 11 16 0 6 -6 7 -12 3 -9 -5 -9
-2 1 9 9 11 10 17 2 17 -6 0 -11 5 -11 11 0 5 4 8 9 4 5 -3 13 -1 16 5 4 6 1
9 -5 8 -7 -2 -14 5 -15 15 -3 15 -1 16 11 6 13 -11 14 -8 8 16 -5 20 -4 26 5
21 6 -4 11 -2 11 3 0 6 -5 11 -11 11 -6 0 -3 7 5 16 19 19 21 28 4 18 -7 -4
-10 -4 -6 1 4 4 2 15 -5 23 -10 13 -9 14 10 4 33 -18 38 -14 12 8 -15 12 -17
18 -8 14 17 -5 32 9 35 34 1 6 -2 10 -6 7 -5 -3 -12 0 -16 6 -4 7 -3 9 2 6 26
-15 46 21 44 77 0 16 5 34 12 38 10 7 9 8 -2 5 -19 -6 -50 10 -50 26 0 7 4 6
10 -3 7 -11 10 -12 10 -2 0 8 -9 16 -20 19 -11 3 -18 9 -15 13 3 4 -3 14 -12
21 -12 10 -14 10 -9 2 4 -7 3 -13 -2 -13 -5 0 -14 10 -21 23 -6 12 -9 14 -7 5
3 -10 1 -18 -4 -18 -6 0 -10 8 -10 18 0 14 -2 15 -10 2 -7 -11 -10 -11 -10 -2
0 7 -5 10 -10 7 -5 -3 -10 -1 -10 4 0 6 6 11 13 11 9 0 9 2 -1 9 -11 7 -11 9
2 14 9 4 13 13 10 21 -5 14 -173 16 -1530 16 l-1524 0 0 -2560z m3047 2534
c-3 -3 -12 -4 -19 -1 -8 3 -5 6 6 6 11 1 17 -2 13 -5z m138 -214 c-3 -5 -12
-10 -18 -10 -7 0 -6 4 3 10 19 12 23 12 15 0z m-319 -225 c-3 -9 0 -15 9 -15
8 0 14 5 13 11 -2 6 8 13 22 15 19 3 21 2 10 -6 -16 -10 -23 -113 -8 -104 5 3
5 11 2 17 -4 7 -5 10 -1 7 3 -3 5 -7 4 -10 0 -3 5 -16 12 -29 12 -21 11 -23
-2 -18 -17 6 -17 -8 1 -41 7 -12 17 -20 22 -17 5 3 11 1 15 -4 3 -6 -3 -8 -15
-6 -11 2 -22 -1 -26 -6 -3 -5 -2 -9 3 -8 20 3 25 -2 13 -16 -9 -11 -9 -15 -1
-15 7 0 9 -4 6 -10 -4 -6 1 -7 12 -4 16 5 15 3 -2 -12 -16 -13 -16 -15 -3 -11
22 8 29 -15 9 -30 -14 -10 -12 -12 9 -8 21 3 22 2 9 -7 -15 -11 -15 -13 5 -31
11 -10 16 -16 10 -13 -12 6 -12 -30 1 -41 4 -5 5 -3 1 4 -3 6 -3 14 2 17 4 2
9 -4 9 -15 1 -10 -3 -19 -10 -19 -6 0 -2 -7 9 -16 10 -8 14 -13 7 -10 -6 4
-15 1 -19 -5 -5 -8 -3 -9 6 -4 10 6 12 4 6 -10 -5 -14 -4 -16 7 -7 16 14 28 6
21 -13 -3 -7 -1 -16 5 -20 8 -4 8 -12 0 -27 -8 -14 -8 -18 0 -14 7 5 10 -3 7
-24 -3 -26 -1 -29 12 -18 13 11 15 9 10 -15 -3 -15 -1 -30 4 -33 5 -3 7 -12 4
-19 -3 -9 1 -12 13 -10 10 2 18 -3 18 -10 0 -8 -7 -11 -16 -7 -14 5 -14 3 -3
-11 8 -8 21 -13 30 -11 15 5 15 4 0 -6 -20 -12 -24 -30 -7 -30 5 0 7 5 3 12
-4 7 -3 8 5 4 9 -6 9 -11 1 -21 -8 -10 -8 -15 1 -21 7 -4 9 -3 6 3 -3 5 -1 10
6 10 7 0 13 -7 14 -16 3 -47 8 -69 15 -65 5 3 5 10 2 16 -4 7 -2 8 5 4 6 -4 9
-12 6 -17 -4 -5 -1 -9 4 -9 6 0 11 -5 11 -11 0 -5 -6 -7 -12 -3 -7 3 -1 -5 13
-19 15 -14 29 -32 32 -39 2 -7 7 -10 11 -7 3 3 -5 18 -18 32 -14 15 -21 27
-16 27 5 0 20 -16 33 -35 13 -19 27 -32 32 -27 5 4 5 2 1 -5 -4 -7 -14 -9 -23
-6 -15 6 -16 5 -3 -9 8 -9 20 -13 25 -10 6 3 2 -4 -8 -15 -16 -18 -52 -29 -42
-12 3 4 -7 10 -20 13 -14 4 -24 10 -21 15 7 11 -38 8 -47 -4 -5 -6 -7 -4 -4 5
2 8 12 13 23 12 10 -2 16 -1 12 3 -11 12 -43 12 -51 1 -5 -6 -5 0 -2 13 6 21
4 23 -14 18 -23 -6 -29 7 -8 17 6 4 2 4 -10 2 -13 -2 -26 1 -30 6 -3 6 -1 8 5
4 6 -3 13 -3 16 2 7 11 -26 12 -40 1 -7 -5 -11 -3 -11 6 0 8 4 12 9 9 4 -3 8
0 8 6 0 7 -12 10 -27 8 -23 -2 -28 1 -27 19 0 16 -3 20 -11 13 -11 -9 -42 26
-37 43 1 5 -2 6 -8 2 -5 -3 -10 -1 -10 6 0 7 -3 9 -6 6 -4 -4 -1 -13 5 -21 9
-11 9 -16 0 -22 -8 -4 -9 -3 -5 4 4 7 2 12 -3 12 -6 0 -11 6 -11 13 0 7 -5 18
-11 24 -14 14 -42 5 -32 -10 4 -6 1 -7 -6 -2 -9 5 -10 10 -2 18 16 16 13 27
-4 21 -18 -7 -47 14 -39 27 5 9 -9 13 -35 9 -8 -1 -12 4 -8 13 8 21 -4 29 -21
14 -13 -9 -14 -9 -8 1 4 6 3 12 -1 12 -19 0 -74 60 -67 72 5 8 0 7 -11 -2 -17
-14 -18 -13 -12 4 6 16 5 17 -8 6 -13 -11 -14 -10 -8 5 5 15 3 17 -12 12 -16
-7 -16 -5 -4 10 12 15 12 16 -4 10 -10 -4 -16 -3 -12 2 9 15 -6 40 -21 34 -8
-3 -14 0 -14 6 0 6 5 11 12 11 6 0 -2 11 -18 25 -26 23 -27 24 -6 20 20 -3 21
-2 10 18 -10 19 -9 20 4 10 15 -13 28 -8 28 11 0 6 -5 4 -10 -4 -11 -17 -13
-9 -4 14 5 12 10 14 19 6 10 -9 12 -7 8 8 -5 22 23 55 39 46 7 -4 8 -2 4 5 -4
6 -11 9 -16 6 -5 -3 -12 0 -16 6 -4 8 -3 9 4 5 7 -4 12 -2 12 5 0 8 4 8 15 -1
13 -11 14 -10 9 5 -6 14 -4 16 7 10 12 -7 12 -6 1 7 -10 13 -10 17 3 22 8 3
15 11 15 17 0 8 -4 8 -15 -1 -9 -7 -18 -10 -22 -6 -3 3 -1 6 5 6 7 0 12 9 12
21 0 11 -4 17 -10 14 -16 -10 -11 1 7 16 14 12 16 12 8 0 -6 -10 -4 -12 4 -7
7 5 10 14 7 21 -5 13 12 35 27 35 4 0 5 -5 1 -12 -5 -7 -3 -8 5 -4 7 5 10 14
8 21 -4 8 3 11 19 9 20 -2 23 0 14 11 -8 10 -8 15 1 21 8 5 9 3 4 -6 -5 -8 -3
-11 6 -8 8 3 13 12 13 21 -1 11 5 14 23 11 15 -3 22 -1 18 6 -3 5 -2 10 4 10
6 0 8 7 4 15 -3 9 -2 15 3 14 20 -3 44 1 43 9 -3 15 1 32 7 32 3 0 4 -7 0 -15z
m1455 -38 c-10 -9 -11 -8 -5 6 3 10 9 15 12 12 3 -3 0 -11 -7 -18z m-1391 -18
c0 -5 -4 -9 -8 -9 -5 0 -9 7 -9 15 0 8 4 12 9 9 4 -3 8 -9 8 -15z m17 -106 c0
-9 -4 -10 -14 -2 -7 6 -13 12 -13 14 0 1 6 2 13 2 8 0 14 -6 14 -14z m462 -65
c-1 -13 1 -32 5 -43 5 -14 3 -13 -7 4 -8 13 -12 32 -9 43 6 25 12 23 11 -4z
m508 -13 c0 -8 -4 -12 -9 -9 -5 3 -6 10 -3 15 9 13 12 11 12 -6z m-723 -83 c3
-5 -1 -9 -9 -9 -8 0 -12 4 -9 9 3 4 7 8 9 8 2 0 6 -4 9 -8z m234 -16 c-7 -8
-15 -12 -17 -11 -5 6 10 25 20 25 5 0 4 -6 -3 -14z m-21 -48 c-3 -8 -6 -5 -6
6 -1 11 2 17 5 13 3 -3 4 -12 1 -19z m-862 -78 c3 -5 1 -10 -4 -10 -6 0 -11 5
-11 10 0 6 2 10 4 10 3 0 8 -4 11 -10z m2150 -20 c3 -6 -1 -7 -9 -4 -18 7 -21
14 -7 14 6 0 13 -4 16 -10z m-985 -34 c0 -2 -7 -7 -16 -10 -8 -3 -12 -2 -9 4
6 10 25 14 25 6z m-649 -49 c-10 -9 -11 -8 -5 6 3 10 9 15 12 12 3 -3 0 -11
-7 -18z m359 -27 c0 -5 -5 -10 -11 -10 -5 0 -7 5 -4 10 3 6 8 10 11 10 2 0 4
-4 4 -10z m-65 -49 c3 -5 0 -13 -6 -17 -7 -4 -9 -3 -5 4 3 5 0 13 -6 15 -9 4
-10 6 -1 6 6 1 14 -3 18 -8z m-970 -21 c3 5 12 10 18 10 7 0 6 -4 -3 -10 -13
-9 -13 -10 0 -11 8 -1 18 -1 22 -1 3 1 12 -5 18 -13 8 -9 8 -15 2 -15 -6 0
-12 5 -14 12 -3 7 -7 5 -11 -6 -4 -9 -3 -15 2 -11 5 3 12 1 16 -4 3 -6 12 -8
19 -5 8 3 17 0 22 -7 4 -7 3 -10 -4 -5 -6 3 -14 2 -17 -4 -4 -6 -3 -10 2 -9
19 3 34 -2 29 -10 -4 -5 4 -8 17 -7 25 3 34 -22 13 -36 -8 -6 -7 -8 1 -8 6 0
15 5 18 11 5 6 13 3 22 -10 8 -12 11 -27 7 -34 -6 -9 -4 -9 8 1 13 10 17 10
22 -3 3 -9 12 -14 18 -10 7 3 6 0 -4 -6 -15 -12 -14 -14 8 -31 14 -11 29 -16
36 -12 8 5 7 0 -2 -11 -8 -10 -10 -16 -3 -12 6 4 15 2 18 -4 4 -5 13 -8 21 -5
8 3 13 2 13 -2 -3 -18 2 -32 12 -32 5 0 7 5 3 12 -4 7 -3 8 5 4 9 -6 9 -11 1
-21 -8 -10 -6 -15 10 -20 11 -3 18 -10 15 -15 -3 -5 0 -12 6 -16 8 -4 9 -3 5
4 -4 7 -2 12 3 12 6 0 11 -5 11 -11 0 -5 6 -7 13 -3 7 5 6 0 -3 -11 -9 -11
-10 -16 -2 -11 7 4 12 2 12 -4 0 -6 5 -8 10 -5 6 3 10 1 10 -4 0 -6 5 -11 11
-11 5 0 7 4 4 10 -4 6 1 7 11 3 11 -4 13 -8 6 -11 -7 -2 -12 -8 -12 -13 0 -6
5 -7 10 -4 6 3 10 -4 11 -17 0 -22 1 -22 9 -3 8 18 9 18 9 2 1 -11 5 -15 13
-11 8 5 9 2 4 -11 -5 -15 -4 -16 9 -5 17 14 21 0 4 -17 -7 -7 -3 -9 14 -6 14
3 28 0 31 -6 5 -7 1 -9 -11 -5 -15 6 -15 4 2 -9 11 -8 23 -13 27 -10 5 2 11
-3 14 -11 8 -22 25 -20 18 2 -2 9 1 7 7 -5 7 -13 16 -23 21 -23 5 0 6 -4 3
-10 -3 -6 1 -7 9 -4 10 4 16 1 16 -7 0 -7 3 -9 7 -5 4 4 -3 16 -17 27 -20 16
-21 18 -4 10 12 -6 28 -21 36 -33 11 -17 26 -24 54 -26 59 -3 78 -8 82 -20 2
-7 8 -10 13 -6 5 3 9 0 9 -5 0 -6 6 -11 14 -11 20 0 29 -17 15 -26 -8 -5 -9
-3 -4 6 6 9 4 11 -4 5 -8 -5 -9 -11 -3 -17 12 -12 4 -48 -12 -48 -6 0 -3 -5 7
-11 18 -10 18 -12 1 -31 -13 -14 -14 -19 -4 -16 8 2 14 -6 14 -22 2 -38 15
-54 32 -39 8 6 14 8 14 4 0 -5 3 -6 6 -2 4 3 0 13 -9 21 -8 8 -17 13 -19 11
-2 -2 -4 6 -4 20 0 13 4 21 8 19 4 -3 8 4 8 15 0 12 4 21 10 21 5 0 7 -8 4
-17 -5 -15 -4 -16 5 -3 8 12 5 19 -12 33 -12 10 -17 16 -11 13 7 -3 17 1 24 9
11 13 10 14 -6 9 -18 -7 -18 -6 -1 12 11 12 20 15 25 9 4 -6 16 -11 26 -10 11
0 21 -6 24 -13 2 -8 -2 -10 -15 -5 -17 6 -17 6 1 -12 19 -19 19 -20 -5 -26
-21 -6 -21 -7 -4 -9 12 -1 15 -4 7 -7 -10 -4 -10 -8 0 -21 11 -13 11 -14 0 -8
-11 6 -13 0 -11 -30 1 -22 7 -45 12 -52 7 -9 5 -11 -7 -6 -11 4 -15 13 -11 23
5 12 3 13 -5 5 -9 -9 -8 -18 5 -38 10 -14 14 -26 10 -26 -4 0 -2 -7 5 -15 11
-13 10 -14 -6 -9 -15 6 -17 4 -7 -6 9 -9 9 -17 2 -26 -7 -8 -6 -14 2 -20 8 -5
9 -3 4 6 -6 9 -4 11 4 5 9 -5 10 -10 2 -18 -13 -13 -15 -31 -3 -23 13 8 8 -39
-5 -56 -8 -9 -9 -19 -3 -28 13 -20 12 -33 -1 -24 -7 4 -6 -3 2 -17 13 -25 13
-27 -3 -46 -5 -7 -7 -18 -3 -25 4 -7 -1 -4 -9 6 -9 11 -19 17 -22 13 -4 -4 -2
-12 4 -20 8 -10 6 -13 -11 -14 -17 -2 -19 0 -7 7 11 7 11 10 2 10 -7 0 -12 8
-10 17 4 22 -21 24 -44 5 -18 -15 -15 -37 3 -26 5 3 7 10 4 15 -4 5 -1 9 4 9
13 0 13 -3 5 -24 -7 -18 -34 -22 -34 -5 0 5 -5 7 -11 3 -7 -4 -7 1 1 16 11 20
10 21 -12 15 -20 -5 -21 -5 -5 5 18 12 18 13 -1 31 -14 12 -18 26 -15 40 4 15
3 20 -5 15 -8 -5 -10 -2 -6 9 5 11 2 14 -12 9 -16 -5 -16 -4 -4 5 13 9 13 12
1 20 -8 5 -11 16 -8 24 3 9 0 18 -8 21 -8 3 -12 16 -11 30 3 22 1 24 -12 14
-13 -12 -14 -10 -3 11 7 13 9 21 3 17 -5 -3 -16 2 -23 11 -12 15 -12 16 4 10
14 -5 16 -3 8 12 -6 10 -7 22 -3 26 4 5 1 5 -6 1 -7 -4 -9 -13 -5 -19 4 -7 -1
-6 -10 2 -14 11 -15 16 -5 29 11 13 11 14 -1 7 -11 -6 -13 -4 -7 10 6 16 4 16
-10 4 -16 -13 -16 -12 -6 8 9 16 9 24 0 29 -7 5 -8 3 -3 -6 5 -8 4 -11 -2 -7
-6 4 -9 18 -8 31 2 17 -1 23 -10 20 -9 -4 -13 2 -11 20 2 14 -1 23 -5 20 -5
-3 -9 0 -9 6 0 7 -7 9 -16 6 -8 -3 -13 -2 -9 3 3 5 -1 12 -7 15 -7 3 -2 3 12
0 23 -6 23 -6 7 10 -9 10 -14 22 -11 28 4 7 2 8 -5 4 -6 -4 -9 -11 -7 -15 3
-4 -1 -8 -8 -8 -8 0 -12 7 -8 15 4 11 1 13 -8 7 -9 -5 -11 -4 -6 4 4 6 13 9
19 5 7 -3 4 1 -6 9 -11 9 -15 21 -11 33 7 17 6 17 -12 -1 -10 -12 -15 -15 -10
-8 5 8 4 13 -3 13 -6 0 -11 5 -11 11 0 5 5 7 12 3 7 -4 8 -3 4 5 -6 9 -11 9
-22 0 -12 -10 -13 -9 -8 4 6 16 -28 42 -40 30 -3 -3 -6 -1 -6 7 0 10 -3 10
-14 1 -10 -8 -16 -9 -21 -1 -3 5 -15 10 -26 10 -11 0 -18 4 -15 8 3 5 -1 9 -8
9 -9 0 -12 -7 -8 -16 5 -13 2 -13 -22 2 l-27 18 12 -23 12 -23 -23 20 c-13 11
-20 14 -16 8 4 -7 2 -13 -4 -13 -6 0 -8 -6 -5 -12 4 -7 -1 -4 -9 6 -16 19 -16
19 -16 -3 0 -21 -1 -21 -16 -6 -11 11 -20 13 -28 5 -7 -5 -16 -7 -19 -3 -4 3
-9 -2 -13 -11 -3 -9 -10 -13 -15 -10 -5 3 -6 10 -3 16 4 7 2 8 -5 4 -6 -4 -9
-11 -6 -16 3 -4 -2 -13 -10 -20 -13 -11 -14 -10 -9 5 7 16 6 16 -18 1 -13 -9
-29 -13 -33 -9 -5 5 -3 0 4 -10 12 -15 12 -17 -3 -11 -9 3 -16 14 -17 23 0 12
-2 11 -9 -4 -4 -12 -16 -27 -26 -35 -17 -13 -16 -12 1 9 l20 24 -21 -11 c-12
-6 -24 -9 -27 -5 -4 3 -9 -1 -13 -10 -3 -8 -14 -14 -24 -12 -12 2 -20 -4 -23
-17 -3 -11 -10 -17 -16 -14 -5 4 -12 2 -16 -3 -3 -6 -15 -7 -29 -1 -17 6 -28
4 -40 -8 -15 -15 -18 -15 -27 -2 -8 12 -9 11 -7 -5 2 -15 -2 -19 -16 -17 -10
2 -15 -1 -11 -7 4 -7 0 -8 -11 -4 -13 5 -15 3 -9 -8 6 -11 5 -12 -5 -2 -16 15
-54 -2 -44 -20 4 -7 3 -9 -1 -4 -5 4 -19 0 -31 -8 -17 -11 -25 -12 -30 -3 -5
7 -2 8 7 3 8 -5 11 -4 6 1 -9 10 -16 8 -18 -3 -3 -17 -44 -37 -73 -36 -20 0
-41 -9 -59 -26 -18 -16 -27 -20 -25 -11 2 8 8 19 13 23 6 5 0 5 -13 2 -12 -4
-22 -3 -21 2 1 4 1 19 0 33 -1 20 -3 22 -11 10 -8 -13 -10 -13 -10 2 0 9 -5
20 -12 24 -6 4 -8 3 -5 -3 4 -6 0 -13 -8 -16 -10 -4 -12 -1 -8 11 6 16 5 16
-13 0 -16 -14 -23 -15 -34 -5 -10 10 -12 9 -7 -5 4 -11 2 -17 -6 -15 -7 1 -11
-4 -10 -10 2 -7 -2 -13 -7 -13 -14 0 -13 13 2 28 7 7 8 12 3 12 -6 0 -18 -14
-28 -31 -10 -18 -20 -29 -24 -25 -3 3 -13 0 -21 -7 -12 -9 -14 -9 -9 0 5 7 -1
17 -14 23 -17 10 -20 9 -13 -2 10 -16 15 -42 6 -33 -4 4 -8 11 -8 16 -1 5 -2
12 -3 15 0 4 -9 0 -18 -7 -15 -12 -14 -11 1 13 10 15 15 31 12 36 -3 5 1 9 9
9 8 0 11 -5 8 -11 -3 -6 0 -5 8 3 12 11 12 14 0 18 -11 4 -11 7 0 13 7 5 23 4
35 0 15 -6 26 -5 30 2 4 6 3 8 -4 4 -6 -3 -13 -2 -17 4 -3 5 1 10 10 10 10 0
13 5 9 13 -5 7 0 6 11 -3 17 -14 18 -13 12 3 -5 13 -2 17 11 15 9 -2 16 3 15
10 -2 6 3 12 11 12 7 0 16 9 19 21 5 18 8 19 29 8 21 -11 22 -11 9 4 -9 12
-10 17 -2 17 7 0 10 4 7 9 -3 5 2 8 12 7 11 -1 16 6 16 17 -1 10 0 16 3 13 12
-11 45 16 40 33 -3 14 1 17 18 15 18 -1 22 2 18 17 -3 11 0 19 6 19 7 0 9 -5
5 -12 -4 -7 -3 -8 5 -4 6 4 9 12 6 17 -4 5 -2 9 4 9 6 0 8 7 5 15 -4 10 0 15
11 15 10 0 13 -5 9 -12 -4 -7 -3 -8 5 -4 6 4 9 12 6 17 -4 5 1 12 11 16 15 6
15 7 -2 21 -18 13 -18 14 3 8 12 -4 24 -2 29 5 4 8 3 9 -4 5 -8 -5 -10 -2 -6
9 5 13 9 13 23 3 9 -7 13 -8 8 -3 -4 4 1 18 10 29 15 17 15 19 1 8 -11 -9 -18
-10 -23 -2 -4 6 -3 9 2 8 4 -1 18 3 29 10 12 6 24 9 28 7 3 -3 4 -2 1 2 -3 3
0 12 6 20 6 7 8 13 4 13 -4 0 -14 -8 -22 -17 -13 -16 -13 -16 -3 5 8 17 18 22
31 19 20 -5 27 9 7 15 -6 2 -8 10 -4 16 5 8 13 9 25 2 15 -8 17 -6 13 15 -3
20 -1 23 19 19 13 -2 18 -2 12 2 -7 3 -13 10 -13 15 0 6 5 7 12 3 7 -5 9 -2 5
9 -4 11 -2 14 9 10 9 -3 14 1 14 13 0 16 2 17 10 4 8 -12 10 -11 10 6 0 11 7
29 16 40 15 18 15 18 5 -3 -8 -16 -8 -24 1 -29 7 -4 10 -4 6 0 -3 4 0 19 7 33
8 15 12 30 9 35 -3 5 -2 8 3 7 4 -1 16 1 26 6 14 6 15 10 6 21 -10 12 -8 13 6
8 13 -5 16 -4 10 5 -6 10 -3 11 13 2 14 -7 23 -8 27 -1z m1056 -71 c21 -30 21
-31 1 -18 -12 7 -19 15 -17 18 3 2 0 10 -6 18 -6 7 -9 13 -6 13 3 0 16 -14 28
-31z m297 -44 c-3 -3 -9 2 -12 12 -6 14 -5 15 5 6 7 -7 10 -15 7 -18z m26 -11
c3 -8 2 -12 -4 -9 -6 3 -10 10 -10 16 0 14 7 11 14 -7z m-1134 -85 c0 -5 5 -7
12 -3 7 4 8 3 4 -5 -6 -9 -11 -9 -22 0 -17 14 -18 19 -4 19 6 0 10 -5 10 -11z
m1513 -29 c4 0 5 5 1 12 -4 7 -3 8 5 4 6 -4 9 -11 6 -16 -3 -4 1 -11 7 -13 8
-4 9 -6 2 -6 -7 -1 -20 7 -31 17 -10 9 -14 14 -9 10 6 -5 14 -8 19 -8z m225
-15 c-3 -3 -9 2 -12 12 -6 14 -5 15 5 6 7 -7 10 -15 7 -18z m-220 -41 c-3 -23
0 -30 9 -27 7 3 13 0 13 -7 0 -6 4 -8 10 -5 16 10 -2 -28 -19 -42 -10 -8 -12
-15 -6 -20 6 -5 11 -14 13 -22 2 -11 0 -12 -10 -3 -11 8 -14 7 -15 -8 -1 -10
4 -18 10 -16 7 1 9 1 5 -1 -5 -3 -8 -12 -8 -21 0 -15 -2 -15 -11 -2 -8 12 -9
8 -7 -15 2 -21 -1 -29 -10 -27 -8 1 -11 -2 -7 -8 3 -6 11 -8 16 -5 5 4 9 1 9
-4 0 -6 -8 -11 -17 -11 -15 0 -16 -2 -3 -10 13 -9 13 -10 0 -11 -8 -1 -18 -1
-22 0 -5 0 -8 -4 -8 -10 0 -6 8 -8 18 -5 12 4 19 1 19 -8 0 -9 -4 -13 -9 -10
-4 3 -8 -4 -8 -16 0 -18 -3 -19 -22 -9 -19 9 -21 9 -10 -2 15 -16 16 -29 2
-29 -5 0 -10 7 -10 16 0 9 -5 12 -12 8 -10 -6 -10 -4 0 7 6 7 12 20 12 29 0
12 -2 13 -9 1 -7 -10 -9 -7 -8 12 2 19 5 23 15 15 9 -8 11 -7 6 6 -3 9 -10 16
-15 16 -5 0 -9 5 -9 11 0 5 4 8 8 5 4 -2 14 0 22 5 13 8 12 9 -2 7 -9 -2 -16
0 -15 3 1 4 -7 17 -18 30 -11 12 -15 19 -9 16 8 -5 13 5 16 28 4 39 0 49 -22
58 -12 4 -11 6 3 6 10 1 16 5 12 10 -3 6 3 15 12 21 15 9 14 10 -7 4 -23 -6
-23 -6 -7 10 9 10 14 22 11 28 -4 7 -2 8 5 4 6 -4 19 -2 27 5 14 12 14 14 -3
27 -16 13 -16 14 0 9 9 -4 17 -2 17 3 0 5 11 4 26 -2 21 -10 25 -17 22 -44z
m172 -20 c0 -8 -19 -13 -24 -6 -3 5 1 9 9 9 8 0 15 -2 15 -3z m-1359 -187
c-10 -9 -11 -8 -5 6 3 10 9 15 12 12 3 -3 0 -11 -7 -18z m-325 -49 c4 -7 4
-10 -1 -6 -4 4 -14 3 -21 -3 -8 -7 -14 -6 -20 2 -4 7 -3 9 4 5 6 -3 13 -2 17
4 8 13 12 13 21 -2z m469 -37 c-6 -5 -25 10 -25 20 0 5 6 4 14 -3 8 -7 12 -15
11 -17z m245 -64 c0 -4 5 -5 12 -1 7 4 8 3 4 -4 -5 -9 -13 -9 -29 -1 -31 16
-32 18 -8 16 11 -1 21 -5 21 -10z m743 2 c11 9 14 2 13 -33 -1 -35 -4 -42 -14
-34 -9 8 -9 14 -2 23 11 14 -5 33 -17 21 -4 -3 -1 -6 7 -6 10 0 10 -3 1 -14
-8 -10 -9 -16 -1 -21 17 -11 11 -23 -22 -46 -29 -20 -31 -21 -15 -3 9 12 14
24 10 29 -5 4 -2 5 5 1 14 -8 14 0 3 29 -5 11 -4 25 1 33 7 8 7 12 -1 12 -6 0
-11 5 -11 11 0 8 5 8 15 -1 11 -9 19 -10 28 -1z m-1943 -69 c0 -5 -5 -10 -11
-10 -5 0 -7 5 -4 10 3 6 8 10 11 10 2 0 4 -4 4 -10z m2220 -70 c0 -5 -2 -10
-4 -10 -3 0 -8 5 -11 10 -3 6 -1 10 4 10 6 0 11 -4 11 -10z m-2416 -8 c3 -5
-1 -9 -9 -9 -8 0 -12 4 -9 9 3 4 7 8 9 8 2 0 6 -4 9 -8z m636 -154 c0 -4 -4
-8 -9 -8 -6 0 -12 4 -15 8 -3 5 1 9 9 9 8 0 15 -4 15 -9z m30 -68 c-7 -5 -9
-13 -5 -20 5 -8 4 -11 -3 -6 -16 10 -11 45 6 39 10 -5 11 -8 2 -13z m-692 -45
c-3 -3 -9 2 -12 12 -6 14 -5 15 5 6 7 -7 10 -15 7 -18z m2047 -54 c-3 -6 -11
-11 -16 -11 -5 0 -4 6 3 14 14 16 24 13 13 -3z m303 -136 c-3 -3 -9 2 -12 12
-6 14 -5 15 5 6 7 -7 10 -15 7 -18z m-14 -21 c3 -8 2 -12 -4 -9 -6 3 -10 10
-10 16 0 14 7 11 14 -7z m-1554 -218 c0 -2 -7 -7 -16 -10 -8 -3 -12 -2 -9 4 6
10 25 14 25 6z m-25 -136 c-3 -5 -12 -10 -18 -10 -7 0 -6 4 3 10 19 12 23 12
15 0z m5 -40 c0 -5 -5 -10 -11 -10 -5 0 -7 5 -4 10 3 6 8 10 11 10 2 0 4 -4 4
-10z m20 -26 c0 -8 -19 -13 -24 -6 -3 5 1 9 9 9 8 0 15 -2 15 -3z m-1340 -88
c0 -2 -6 -9 -14 -15 -11 -9 -16 -9 -22 0 -4 8 -3 9 4 5 7 -4 12 -2 12 3 0 6 5
11 10 11 6 0 10 -2 10 -4z m2461 -213 c13 -16 12 -17 -3 -4 -17 13 -22 21 -14
21 2 0 10 -8 17 -17z m-2661 -54 c-7 -11 -14 -18 -17 -15 -3 3 0 12 7 21 18
21 23 19 10 -6z m2765 -79 c3 -6 -1 -7 -9 -4 -18 7 -21 14 -7 14 6 0 13 -4 16
-10z m-491 -70 c-6 -6 -10 -3 -10 10 0 13 4 16 10 10 7 -7 7 -13 0 -20z m-394
-54 c-7 -7 -13 -7 -20 0 -6 6 -3 10 10 10 13 0 16 -4 10 -10z m847 -46 c-2
-23 -10 -17 -12 10 -1 10 2 17 6 14 4 -2 7 -13 6 -24z m-992 1 c3 -5 2 -12 -3
-15 -5 -3 -9 1 -9 9 0 17 3 19 12 6z m-1788 -86 c0 -8 -4 -12 -9 -9 -5 3 -6
10 -3 15 9 13 12 11 12 -6z m-11 -154 c-4 -5 0 -11 6 -13 8 -3 4 -10 -11 -17
-19 -11 -22 -11 -15 1 5 7 9 16 10 21 3 15 4 17 10 17 3 0 3 -4 0 -9z m2359
-160 c3 -5 2 -12 -3 -15 -5 -3 -9 1 -9 9 0 17 3 19 12 6z m-5 -126 c0 -2 -6
-8 -13 -14 -10 -8 -14 -7 -14 2 0 8 6 14 14 14 7 0 13 -1 13 -2z m-2309 -97
c-10 -11 -11 -10 -6 5 4 10 2 17 -4 17 -6 0 -11 5 -11 12 0 8 6 6 17 -5 14
-14 15 -19 4 -29z m2309 36 c0 -8 -19 -13 -24 -6 -3 5 1 9 9 9 8 0 15 -2 15
-3z m-940 -69 c-6 -8 -9 -19 -5 -24 3 -7 0 -8 -9 -5 -12 5 -13 9 -3 25 6 10
16 19 21 19 4 0 3 -7 -4 -15z m-1350 -69 c0 -3 -4 -8 -10 -11 -5 -3 -10 -1
-10 4 0 6 5 11 10 11 6 0 10 -2 10 -4z m1080 -25 c0 -6 -4 -12 -8 -15 -5 -3
-9 1 -9 9 0 8 4 15 9 15 4 0 8 -4 8 -9z m1240 -95 c0 -2 -7 -7 -16 -10 -8 -3
-12 -2 -9 4 6 10 25 14 25 6z m-14 -52 c1 -9 0 -13 -4 -10 -3 4 -7 14 -8 22
-1 9 0 13 4 10 3 -4 7 -14 8 -22z m-991 -84 c3 -5 1 -10 -4 -10 -6 0 -11 5
-11 10 0 6 2 10 4 10 3 0 8 -4 11 -10z m1010 -28 c-3 -3 -11 0 -18 7 -9 10 -8
11 6 5 10 -3 15 -9 12 -12z m-1355 -117 c0 -8 -4 -15 -10 -15 -5 0 -7 7 -4 15
4 8 8 15 10 15 2 0 4 -7 4 -15z m1386 -57 c4 -7 3 -8 -4 -4 -13 8 -17 -6 -5
-18 4 -3 8 -14 9 -22 1 -9 0 -14 -3 -11 -2 3 -3 7 -1 10 2 2 -3 11 -10 20 -8
9 -11 21 -7 27 8 13 12 13 21 -2z m-1056 -88 c0 -5 -5 -10 -11 -10 -5 0 -7 5
-4 10 3 6 8 10 11 10 2 0 4 -4 4 -10z m1100 0 c0 -5 -2 -10 -4 -10 -3 0 -8 5
-11 10 -3 6 -1 10 4 10 6 0 11 -4 11 -10z m-1519 -153 c-10 -9 -11 -8 -5 6 3
10 9 15 12 12 3 -3 0 -11 -7 -18z"/>
<path d="M2677 4489 c7 -7 15 -10 18 -7 3 3 -2 9 -12 12 -14 6 -15 5 -6 -5z"/>
<path d="M3010 4156 c0 -2 8 -10 18 -17 15 -13 16 -12 3 4 -13 16 -21 21 -21
13z"/>
<path d="M2676 4062 c-3 -5 1 -9 9 -9 8 0 12 4 9 9 -3 4 -7 8 -9 8 -2 0 -6 -4
-9 -8z"/>
<path d="M2815 3959 c-4 -6 -5 -12 -2 -15 2 -3 7 2 10 11 7 17 1 20 -8 4z"/>
<path d="M2980 3820 c0 -5 7 -7 15 -4 8 4 15 8 15 10 0 2 -7 4 -15 4 -8 0 -15
-4 -15 -10z"/>
<path d="M2309 3933 c-13 -16 -12 -17 4 -4 9 7 17 15 17 17 0 8 -8 3 -21 -13z"/>
<path d="M2540 3840 c0 -5 5 -10 11 -10 5 0 7 5 4 10 -3 6 -8 10 -11 10 -2 0
-4 -4 -4 -10z"/>
<path d="M2810 3481 c0 -5 5 -13 10 -16 6 -3 10 -2 10 4 0 5 -4 13 -10 16 -5
3 -10 2 -10 -4z"/>
<path d="M1801 3364 c0 -11 3 -14 6 -6 3 7 2 16 -1 19 -3 4 -6 -2 -5 -13z"/>
<path d="M3158 3373 c7 -3 16 -2 19 1 4 3 -2 6 -13 5 -11 0 -14 -3 -6 -6z"/>
<path d="M2320 3361 c0 -6 4 -13 10 -16 6 -3 7 1 4 9 -7 18 -14 21 -14 7z"/>
<path d="M1667 3265 c3 -8 9 -12 14 -9 12 7 11 11 -5 17 -10 4 -13 1 -9 -8z"/>
<path d="M2075 3270 c-3 -5 -1 -10 4 -10 6 0 11 5 11 10 0 6 -2 10 -4 10 -3 0
-8 -4 -11 -10z"/>
<path d="M2013 3238 c1 -7 -4 -12 -11 -10 -8 1 -11 -2 -7 -8 5 -8 11 -8 21 1
7 6 11 15 8 20 -8 13 -14 11 -11 -3z"/>
<path d="M1697 3223 c-4 -3 -7 -11 -7 -17 0 -6 5 -5 12 2 6 6 9 14 7 17 -3 3
-9 2 -12 -2z"/>
<path d="M3286 3211 c-3 -5 0 -13 7 -19 10 -8 13 -6 13 9 0 20 -11 25 -20 10z"/>
<path d="M3248 3141 c11 -6 10 -12 -5 -26 -17 -18 -17 -19 1 -12 14 5 17 3 13
-8 -4 -8 -2 -17 3 -20 13 -8 13 -25 -1 -25 -5 0 -8 4 -5 8 3 5 -1 9 -9 9 -8 0
-11 -5 -7 -11 3 -6 8 -20 9 -31 2 -11 11 -26 21 -34 16 -12 15 -13 -5 -7 -12
4 -24 2 -28 -4 -4 -6 -1 -9 6 -8 7 2 13 -8 13 -24 1 -14 4 -30 9 -34 10 -11 9
-24 -4 -24 -5 0 -7 5 -3 12 4 7 3 8 -4 4 -8 -5 -9 -13 -2 -25 6 -12 5 -22 -2
-29 -7 -7 -10 -12 -7 -13 33 -6 69 -5 69 2 0 5 -4 9 -10 9 -5 0 -10 5 -10 11
0 5 4 8 8 5 4 -3 8 10 8 27 -1 21 -8 36 -21 45 -20 12 -20 12 0 10 24 -4 28
30 5 50 -8 8 -10 11 -4 8 6 -3 22 7 35 22 13 15 16 20 5 12 -24 -19 -43 -21
-43 -4 0 7 5 12 11 11 6 -1 10 11 9 28 -1 17 -3 40 -4 53 -1 17 -5 20 -14 12
-9 -8 -15 -8 -20 0 -3 5 -12 10 -18 10 -8 0 -8 -3 1 -9z m37 -31 c3 -5 1 -10
-4 -10 -6 0 -11 5 -11 10 0 6 2 10 4 10 3 0 8 -4 11 -10z m6 -43 c-10 -9 -11
-8 -5 6 3 10 9 15 12 12 3 -3 0 -11 -7 -18z m-23 -52 c-3 -3 -9 2 -12 12 -6
14 -5 15 5 6 7 -7 10 -15 7 -18z m12 -144 c-5 -11 -15 -23 -21 -27 -6 -3 -3 5
6 20 20 30 30 35 15 7z"/>
<path d="M3330 3100 c0 -5 5 -10 11 -10 5 0 7 5 4 10 -3 6 -8 10 -11 10 -2 0
-4 -4 -4 -10z"/>
<path d="M3330 2819 c0 -5 5 -7 10 -4 6 3 10 8 10 11 0 2 -4 4 -10 4 -5 0 -10
-5 -10 -11z"/>
<path d="M4155 3640 c-3 -5 -1 -10 4 -10 6 0 11 5 11 10 0 6 -2 10 -4 10 -3 0
-8 -4 -11 -10z"/>
<path d="M4055 3520 c-3 -5 -2 -10 4 -10 5 0 13 5 16 10 3 6 2 10 -4 10 -5 0
-13 -4 -16 -10z"/>
<path d="M3257 5103 c6 -16 5 -17 -13 -3 -10 8 -6 0 10 -18 31 -33 40 -58 26
-67 -5 -3 -7 3 -5 12 3 20 -12 43 -27 43 -5 0 -6 -6 -1 -12 4 -7 9 -21 10 -32
3 -16 1 -17 -14 -6 -10 7 -5 0 11 -14 l28 -27 -28 7 c-28 6 -28 6 -9 -9 11 -8
24 -13 29 -10 5 4 6 1 2 -6 -4 -6 -12 -9 -17 -6 -5 4 -7 -4 -6 -17 2 -13 10
-23 18 -23 8 0 19 -6 25 -14 9 -12 12 -11 17 3 4 11 3 15 -4 10 -8 -4 -9 1 -4
16 4 12 3 20 -1 17 -5 -3 -9 5 -9 18 0 13 4 20 10 17 6 -3 3 3 -5 13 -14 17
-13 18 3 12 13 -5 16 -3 10 6 -4 6 -8 17 -9 23 -1 6 -5 22 -9 35 -6 22 -6 22
6 6 13 -16 14 -16 14 7 0 16 -4 22 -14 18 -9 -3 -12 -1 -7 6 4 7 3 12 -3 12
-5 0 -12 -6 -14 -12 -4 -10 -6 -10 -6 0 -1 6 -5 12 -11 12 -5 0 -6 -8 -3 -17z"/>
<path d="M3393 5106 c3 -7 1 -18 -5 -24 -6 -6 -2 -15 12 -25 18 -13 20 -18 10
-34 -11 -17 -11 -17 -6 0 3 10 2 16 -3 12 -5 -3 -11 -2 -14 2 -2 5 -1 1 1 -7
3 -8 5 -30 4 -48 0 -20 3 -30 10 -26 5 4 3 -5 -6 -19 -15 -22 -15 -26 -2 -40
13 -13 13 -17 0 -36 -13 -19 -13 -20 1 -15 9 4 25 -2 36 -12 15 -14 20 -15 17
-4 -2 8 -12 20 -23 27 -11 7 -14 12 -7 13 7 0 10 5 7 11 -4 6 0 9 10 7 10 -2
20 4 22 12 4 12 3 12 -5 1 -6 -8 -12 -9 -16 -3 -3 6 -2 13 4 17 13 8 13 25 -1
25 -5 0 -7 -6 -3 -12 5 -10 3 -10 -7 0 -12 11 -12 14 1 22 8 5 11 10 5 10 -5
0 -4 5 3 12 15 15 15 28 1 28 -5 0 -7 -4 -4 -10 4 -6 -1 -7 -11 -3 -15 5 -15
8 -2 17 8 6 16 16 17 21 2 6 8 9 15 7 6 -1 0 6 -13 16 -23 19 -23 20 -5 30 12
7 14 12 5 12 -7 0 -11 6 -8 13 3 8 -4 14 -20 15 -18 1 -24 -2 -20 -12z m19
-23 c-6 -2 -9 -10 -6 -15 4 -7 2 -8 -5 -4 -13 9 -5 26 12 25 9 0 8 -2 -1 -6z
m4 -180 c-3 -4 -6 -1 -6 6 0 7 -4 9 -10 6 -6 -4 -7 1 -3 11 6 15 7 15 15 -1 6
-9 7 -19 4 -22z"/>
<path d="M3246 4894 c-3 -8 -1 -26 4 -40 13 -33 13 -37 -2 -28 -9 5 -9 3 1 -9
7 -9 18 -14 25 -11 6 3 0 -4 -13 -15 -13 -12 -18 -21 -12 -21 18 0 13 -18 -6
-23 -10 -3 -6 -4 10 -4 20 1 26 6 22 17 -4 11 -1 10 9 -2 18 -24 21 -23 22 7
1 14 -2 22 -8 19 -6 -4 -5 2 1 14 13 25 14 35 3 28 -5 -3 -9 2 -9 10 0 9 6 13
15 9 12 -4 13 -3 2 10 -7 8 -9 15 -5 15 4 0 2 6 -4 14 -17 20 -49 26 -55 10z
m21 -26 c2 -18 0 -20 -7 -8 -12 18 -13 30 -2 30 4 0 9 -10 9 -22z"/>
<path d="M3393 4833 c-7 -2 -13 -9 -13 -15 0 -6 6 -6 15 2 19 16 19 6 0 -23
-9 -14 -11 -27 -5 -37 5 -8 5 -21 0 -30 -5 -10 -4 -22 2 -31 8 -12 9 -11 5 2
-3 9 3 26 14 37 23 25 25 36 4 29 -8 -4 -17 -3 -19 2 -7 10 26 10 40 0 7 -5
11 -3 11 6 0 15 -9 19 -37 16 -13 -2 -13 0 -1 8 8 5 21 7 29 4 10 -4 9 0 -4
15 -19 23 -21 24 -41 15z"/>
<path d="M3417 4732 c-10 -10 -14 -22 -11 -25 4 -4 1 -13 -6 -22 -7 -8 -9 -15
-5 -15 4 0 2 -7 -5 -15 -11 -14 -7 -19 13 -16 4 1 0 -10 -9 -24 -11 -18 -13
-25 -4 -25 10 0 10 -3 0 -15 -7 -9 -10 -18 -6 -22 3 -3 6 -1 6 5 0 7 5 12 11
12 7 0 5 -10 -5 -25 -14 -21 -14 -24 -1 -18 9 3 25 -3 36 -13 15 -14 20 -15
17 -4 -2 8 -12 20 -23 27 -11 7 -14 12 -7 13 7 0 10 5 7 11 -4 6 0 9 10 7 10
-2 20 4 22 12 4 12 3 12 -5 1 -6 -8 -12 -9 -16 -3 -3 6 -2 13 4 17 13 8 13 25
-1 25 -5 0 -7 -6 -3 -12 5 -10 3 -10 -7 0 -12 11 -12 14 1 22 8 5 18 6 24 3 5
-3 6 -1 2 6 -4 6 -13 8 -19 4 -7 -4 -5 2 3 12 9 11 10 16 3 11 -7 -4 -13 -4
-14 1 0 4 -2 18 -3 31 -2 13 2 26 7 29 6 4 7 1 2 -8 -5 -8 -4 -10 0 -6 12 10
15 37 6 37 -4 0 -15 -8 -24 -18z m3 -71 c0 -5 -7 -12 -16 -15 -14 -5 -15 -4
-4 9 14 17 20 19 20 6z m0 -76 c0 -5 -5 -3 -10 5 -5 8 -10 20 -10 25 0 6 5 3
10 -5 5 -8 10 -19 10 -25z"/>
<path d="M3255 4730 c-3 -5 -2 -16 2 -27 6 -16 5 -17 -13 -4 -10 7 -6 1 11
-14 28 -27 28 -27 5 -20 -21 7 -23 6 -13 -7 10 -11 10 -17 0 -28 -7 -8 -7 -10
-1 -7 7 4 12 -3 12 -18 0 -15 -5 -22 -12 -19 -6 3 -4 0 4 -8 8 -7 16 -22 18
-33 4 -20 3 -20 -11 0 -14 19 -15 18 -10 -8 3 -15 9 -25 12 -22 4 2 8 -2 8
-10 0 -8 -4 -12 -8 -9 -4 2 -7 -5 -6 -16 1 -11 5 -20 10 -20 5 0 2 -11 -7 -25
-14 -22 -14 -24 0 -18 14 5 14 2 0 -30 -8 -20 -11 -39 -6 -42 5 -3 6 -13 3
-22 -5 -12 -3 -14 8 -8 12 7 12 6 1 -7 -9 -11 -10 -18 -2 -23 5 -3 10 -4 10 0
0 3 9 1 20 -5 14 -7 20 -7 20 0 0 5 -6 10 -12 10 -7 0 -5 5 5 11 10 6 14 15
10 22 -12 20 -12 41 0 56 9 11 9 13 0 8 -6 -4 -14 -3 -18 3 -3 5 2 10 12 10
15 0 15 2 3 9 -8 6 -19 7 -25 5 -5 -3 1 4 14 15 13 12 18 21 12 21 -6 0 -11 7
-11 16 0 9 5 13 13 9 6 -4 4 0 -5 8 -18 14 -25 33 -10 23 5 -3 9 1 9 9 0 8 -4
15 -9 15 -5 0 -6 5 -3 10 4 6 12 7 18 3 8 -4 7 -1 -1 9 -9 11 -10 18 -2 23 6
3 8 10 6 14 -3 4 -7 18 -10 32 -3 13 -7 35 -10 47 -4 19 -2 23 12 17 13 -5 14
-3 5 6 -6 6 -9 18 -6 25 3 8 1 14 -3 15 -5 0 -17 2 -26 4 -10 2 -20 0 -23 -5z
m30 -19 c3 -5 2 -12 -3 -15 -5 -3 -9 1 -9 9 0 17 3 19 12 6z m15 -76 c0 -2 -6
-5 -13 -8 -8 -3 -14 1 -14 8 0 7 6 11 14 8 7 -3 13 -6 13 -8z m1 -59 c-6 -7
-7 -17 -3 -21 4 -5 1 -5 -6 -1 -9 6 -10 11 -3 20 6 7 7 17 3 21 -4 5 -1 5 6 1
9 -6 10 -11 3 -20z m-31 -216 c0 -5 -5 -10 -11 -10 -5 0 -7 5 -4 10 3 6 8 10
11 10 2 0 4 -4 4 -10z m35 -40 c3 -5 1 -10 -4 -10 -6 0 -11 5 -11 10 0 6 2 10
4 10 3 0 8 -4 11 -10z"/>
<path d="M3442 4694 c-7 -8 -8 -14 -3 -14 10 0 25 19 20 25 -2 1 -10 -3 -17
-11z"/>
<path d="M4000 4609 c0 -5 5 -7 10 -4 6 3 10 8 10 11 0 2 -4 4 -10 4 -5 0 -10
-5 -10 -11z"/>
<path d="M3430 4460 c0 -6 7 -10 15 -10 8 0 15 2 15 4 0 2 -7 6 -15 10 -8 3
-15 1 -15 -4z"/>
<path d="M3435 4141 c-6 -11 13 -26 22 -17 4 3 1 6 -6 6 -7 0 -9 5 -6 10 3 6
4 10 1 10 -3 0 -7 -4 -11 -9z"/>
<path d="M4686 4113 c-3 -3 -1 -12 5 -19 6 -7 7 -19 3 -26 -12 -19 -13 -58 -1
-65 6 -3 7 -1 3 5 -3 5 0 13 6 15 10 4 10 6 0 6 -8 1 -10 6 -5 14 17 27 8 89
-11 70z"/>
<path d="M3390 3989 c0 -5 5 -7 10 -4 6 3 10 8 10 11 0 2 -4 4 -10 4 -5 0 -10
-5 -10 -11z"/>
<path d="M4085 3151 c-3 -5 -2 -12 3 -15 5 -3 9 1 9 9 0 17 -3 19 -12 6z"/>
<path d="M4109 3021 c6 -10 7 -22 3 -26 -4 -5 -1 -5 6 -1 9 5 9 12 2 27 -6 10
-13 19 -16 19 -2 0 0 -8 5 -19z"/>
<path d="M2655 2580 c-3 -5 1 -10 10 -10 9 0 13 5 10 10 -3 6 -8 10 -10 10 -2
0 -7 -4 -10 -10z"/>
<path d="M3735 2300 c3 -5 8 -10 11 -10 2 0 4 5 4 10 0 6 -5 10 -11 10 -5 0
-7 -4 -4 -10z"/>
<path d="M1210 1995 c-7 -9 -11 -17 -9 -20 3 -2 10 5 17 15 14 24 10 26 -8 5z"/>
<path d="M3579 2008 c-5 -18 -6 -38 -1 -34 7 8 12 36 6 36 -2 0 -4 -1 -5 -2z"/>
<path d="M3565 1841 c-3 -5 -2 -12 3 -15 5 -3 9 1 9 9 0 17 -3 19 -12 6z"/>
<path d="M3925 1810 c-10 -11 -15 -20 -11 -20 11 0 39 30 34 36 -3 2 -13 -5
-23 -16z"/>
<path d="M3345 1811 c-6 -11 9 -23 19 -14 9 9 7 23 -3 23 -6 0 -12 -4 -16 -9z"/>
<path d="M2790 1649 c0 -5 5 -7 10 -4 6 3 10 8 10 11 0 2 -4 4 -10 4 -5 0 -10
-5 -10 -11z"/>
<path d="M3390 1640 c0 -5 5 -10 11 -10 5 0 7 5 4 10 -3 6 -8 10 -11 10 -2 0
-4 -4 -4 -10z"/>
<path d="M2706 1631 c-3 -5 0 -11 7 -14 8 -3 14 1 14 9 0 16 -13 19 -21 5z"/>
<path d="M3390 1540 c0 -5 5 -10 11 -10 5 0 7 5 4 10 -3 6 -8 10 -11 10 -2 0
-4 -4 -4 -10z"/>
<path d="M3399 1518 c-5 -18 -6 -38 -1 -34 7 8 12 36 6 36 -2 0 -4 -1 -5 -2z"/>
<path d="M2646 1393 c-6 -14 -5 -15 5 -6 7 7 10 15 7 18 -3 3 -9 -2 -12 -12z"/>
<path d="M3476 1211 c-4 -5 -2 -12 3 -15 5 -4 12 -2 15 3 4 5 2 12 -3 15 -5 4
-12 2 -15 -3z"/>
<path d="M2236 1113 c-4 -9 -3 -20 1 -24 4 -4 9 3 9 17 2 28 -1 31 -10 7z"/>
<path d="M1120 820 c-9 -6 -10 -10 -3 -10 6 0 15 5 18 10 8 12 4 12 -15 0z"/>
<path d="M1095 740 c-3 -5 -1 -10 4 -10 6 0 11 5 11 10 0 6 -2 10 -4 10 -3 0
-8 -4 -11 -10z"/>
<path d="M995 440 c-3 -5 -1 -10 4 -10 6 0 11 5 11 10 0 6 -2 10 -4 10 -3 0
-8 -4 -11 -10z"/>
<path d="M985 401 c-3 -5 -2 -12 3 -15 5 -3 9 1 9 9 0 17 -3 19 -12 6z"/>
<path d="M2070 359 c0 -5 5 -7 10 -4 6 3 10 8 10 11 0 2 -4 4 -10 4 -5 0 -10
-5 -10 -11z"/>
<path d="M890 86 c0 -2 7 -7 16 -10 8 -3 12 -2 9 4 -6 10 -25 14 -25 6z"/>
<path d="M2107 69 c7 -7 15 -10 18 -7 3 3 -2 9 -12 12 -14 6 -15 5 -6 -5z"/>
</g>
</svg>
